<svg width="698" height="524" viewBox="0 0 698 524" fill="none" xmlns="http://www.w3.org/2000/svg">
<g clip-path="url(#clip0_3685_866)">
<path d="M509.365 212.182C511.621 198.491 524.543 189.192 538.233 191.45C576.797 197.738 616.13 206.196 654.984 216.672C793.743 253.868 918.122 312.917 1005.2 382.952C1097.88 457.495 1138.6 537.068 1119.86 607.025C1109.56 645.495 1082.47 677.198 1041.1 701.082C991.752 729.576 922.046 746.784 836.333 750.683C822.479 751.325 810.714 740.503 810.111 726.72C809.466 712.865 820.214 701.142 834.068 700.499C964.347 694.68 1055.28 653.892 1071.32 594.012C1097.11 497.722 930.763 342.689 641.981 265.218C604.7 255.286 567.073 247.101 530.101 241.056C516.41 238.797 507.109 225.874 509.365 212.182ZM810.368 416.743C812.738 403.082 825.743 393.929 839.475 396.26C853.135 398.633 862.29 411.641 859.962 425.374C853.884 460.437 846.03 495.943 836.646 530.978C778.932 746.457 673.321 912.836 566.705 974.391L566.519 974.401C525.658 997.993 484.695 1006.16 446.226 995.844C368.489 975.006 316.801 882.797 304.564 742.935C303.358 729.113 313.553 716.936 327.446 715.69C341.339 714.444 353.486 724.757 354.692 738.579C364.844 854.382 403.889 932.403 459.302 947.257C555.587 973.067 710.575 806.733 787.988 517.936C796.974 484.389 804.502 450.328 810.368 416.743ZM57.2469 322.118C78.0277 244.303 170.26 192.699 310.105 180.486C323.926 179.282 336.103 189.48 337.351 203.375C338.557 217.196 328.29 229.414 314.47 230.618C198.681 240.751 120.675 279.788 105.832 335.203C92.7682 383.978 128.376 446.658 203.424 507.088C285.212 572.82 403.047 628.581 535.167 663.997C568.826 673.02 602.884 680.554 636.352 686.396C650.012 688.769 659.167 701.777 656.839 715.511C655.533 723.137 650.842 729.426 644.6 733.03L644.588 732.843C639.653 735.692 633.754 736.872 627.72 735.807C592.775 729.752 557.197 721.934 522.122 712.471C383.362 675.275 258.983 616.226 171.906 546.191C79.2253 471.648 38.5097 392.074 57.2469 322.118ZM522.888 361.404C529.751 357.442 538.448 358.794 543.754 364.779L580.805 406.515C591.716 418.825 608.988 423.453 624.592 418.248L677.547 400.628C685.057 398.144 693.343 401.277 697.305 408.14C701.267 415.002 699.914 423.7 693.93 429.005L652.194 466.056C639.885 476.967 635.256 494.239 640.462 509.843L658.081 562.798C660.566 570.308 657.434 578.594 650.571 582.557C643.708 586.519 635.01 585.166 629.704 579.182L592.653 537.445C581.742 525.136 564.471 520.507 548.867 525.712L495.912 543.331C488.402 545.817 480.117 542.684 476.154 535.821C472.192 528.958 473.544 520.26 479.528 514.955L521.265 477.904C533.574 466.993 538.202 449.721 532.997 434.117L515.377 381.162C512.892 373.652 516.026 365.366 522.888 361.404ZM340.653 398.148C420.405 100.16 591.854 -104.037 730.843 -66.7798C815.106 -44.1923 867.427 59.1692 874.578 216.872C875.223 230.728 864.475 242.45 850.621 243.093C836.767 243.736 825.003 232.912 824.4 219.129C818.559 88.8355 777.76 -2.11137 717.955 -18.2038C621.67 -44.0136 466.609 122.362 389.268 411.118C379.302 448.328 371.167 486.03 365.129 523.006C363.864 530.704 359.143 537.109 352.901 540.712L352.829 540.754C347.966 543.562 342.181 544.772 336.189 543.779C322.498 541.52 313.198 528.596 315.454 514.905C321.807 476.296 330.257 436.961 340.653 398.148Z" fill="url(#paint0_linear_3685_866)"/>
</g>
<defs>
<linearGradient id="paint0_linear_3685_866" x1="363.5" y1="685.93" x2="935.245" y2="169.151" gradientUnits="userSpaceOnUse">
<stop stop-color="#E19EF8"/>
<stop offset="0.456731" stop-color="#80C6FF"/>
<stop offset="1" stop-color="#80C6FF"/>
</linearGradient>
<clipPath id="clip0_3685_866">
<rect width="698" height="524" fill="white"/>
</clipPath>
</defs>
</svg>
