<svg width="674" height="522" viewBox="0 0 674 522" fill="none" xmlns="http://www.w3.org/2000/svg">
<g clip-path="url(#clip0_3685_892)">
<g clip-path="url(#clip1_3685_892)">
<path d="M440.744 411.329C451.112 400.932 451.119 384.087 440.721 373.721C411.496 344.475 379.932 315.909 346.93 289.002C229.256 192.772 101.691 122.397 -12.2686 90.8537C-133.562 57.2821 -227.076 71.4606 -275.6 130.774C-302.284 163.391 -312.79 206.241 -307.753 256.535C-301.744 316.536 -273.466 387.052 -223.866 463.096C-215.859 475.394 -199.293 478.815 -187.08 470.819C-174.778 462.813 -171.348 446.339 -179.354 434.04C-254.836 318.523 -275.968 215.209 -234.433 164.438C-167.643 82.7981 68.3046 129.93 313.257 330.162C344.82 356.055 375.096 383.324 403.129 411.353C413.527 421.719 430.375 421.725 440.744 411.329ZM79.0602 279.108C89.3316 268.632 89.1622 251.805 78.6765 241.448C68.1993 231.179 51.3687 231.349 41.0088 241.833C14.6417 268.715 -11.0107 297.397 -35.3124 327.101C-184.776 509.797 -262.469 703.308 -249.487 832.927L-249.381 833.094C-244.406 882.771 -226.114 923.005 -193.492 949.683C-127.567 1003.59 -16.4194 991.036 111.294 915.147C123.913 907.645 128.077 891.365 120.565 878.66C113.053 865.955 96.6901 861.89 84.0705 869.392C-21.6865 932.209 -112.835 946.863 -159.827 908.435C-241.481 841.661 -194.33 605.758 5.95105 360.846C29.2203 332.403 53.8314 304.895 79.0602 279.108ZM625.599 867.655C679.611 801.732 666.968 690.616 591.069 562.931C583.566 550.314 567.282 546.152 554.574 553.663C541.955 561.166 537.8 577.535 545.303 590.152C608.128 695.885 622.781 787.015 584.343 833.999C550.511 875.353 474.666 883.483 376.39 856.341C269.394 826.684 148.696 759.9 36.6531 668.276C8.10827 644.933 -19.4038 620.327 -45.0982 595.184C-55.5755 584.914 -72.4059 585.086 -82.7657 595.57C-88.5103 601.403 -91.0158 609.319 -90.2558 616.907L-90.0879 616.801C-89.4869 622.801 -86.8568 628.598 -82.214 633.124C-55.4252 659.405 -26.7299 685.139 3.06808 709.426C120.743 805.656 248.308 876.031 362.267 907.574C483.561 941.146 577.075 926.968 625.599 867.655ZM304.196 491.895C303.361 483.551 296.825 476.915 288.406 476.053L229.662 470.006C212.347 468.237 197.701 456.258 192.533 439.637L174.956 383.259C172.451 375.272 164.641 370.089 156.298 370.924C147.954 371.76 141.317 378.296 140.456 386.714L134.409 445.458C132.64 462.774 120.661 477.419 104.04 482.587L47.6622 500.164C39.6751 502.668 34.4917 510.479 35.3273 518.822C36.163 527.165 42.6986 533.802 51.1173 534.663L109.861 540.711C127.177 542.48 141.822 554.458 146.99 571.079L164.567 627.456C167.071 635.443 174.881 640.627 183.225 639.791C191.568 638.956 198.205 632.42 199.066 624.001L205.114 565.258C206.884 547.942 218.863 533.297 235.484 528.129L291.861 510.553C299.848 508.048 305.032 500.238 304.196 491.895ZM385.206 671.15C591.938 418.551 661.448 145.116 543.579 48.727C472.12 -9.70971 351 9.19296 211.101 100.472C198.799 108.478 195.368 124.953 203.375 137.252C211.381 149.551 227.947 152.971 240.16 144.975C355.703 69.503 459.039 48.3708 509.809 89.8076C591.462 156.581 544.321 392.573 344.031 637.396C318.22 668.946 290.855 699.225 262.82 727.254C256.987 733.096 254.403 741.109 255.163 748.697L255.172 748.785C255.764 754.697 258.298 760.414 262.852 764.949C273.25 775.315 290.098 775.321 300.467 764.925C329.711 735.616 358.283 704.058 385.206 671.15Z" fill="url(#paint0_linear_3685_892)"/>
</g>
</g>
<defs>
<linearGradient id="paint0_linear_3685_892" x1="123.859" y1="829.302" x2="214.622" y2="18.8736" gradientUnits="userSpaceOnUse">
<stop stop-color="#E19EF8"/>
<stop offset="0.456731" stop-color="#80C6FF"/>
<stop offset="1" stop-color="#00FFC9"/>
</linearGradient>
<clipPath id="clip0_3685_892">
<rect width="674" height="522" fill="white" transform="matrix(-1 0 0 1 674 0)"/>
</clipPath>
<clipPath id="clip1_3685_892">
<rect width="998.343" height="998.343" fill="white" transform="matrix(-1 0 0 1 674 0)"/>
</clipPath>
</defs>
</svg>
