<svg width="198" height="61" viewBox="0 0 198 61" fill="none" xmlns="http://www.w3.org/2000/svg">
<path d="M102.691 58.0205H102.776L104.287 53.4727H105.226L103.067 59.3379C102.917 59.7512 102.758 60.0742 102.591 60.3066C102.423 60.539 102.226 60.7016 102.001 60.7939C101.779 60.8896 101.504 60.9375 101.176 60.9375C101.118 60.9375 101.052 60.9346 100.98 60.9277C100.909 60.9243 100.842 60.9175 100.78 60.9072V60.1738C100.835 60.1841 100.895 60.1909 100.96 60.1943C101.025 60.1977 101.088 60.1992 101.149 60.1992C101.402 60.1992 101.61 60.1348 101.771 60.0049C101.935 59.875 102.066 59.6508 102.165 59.333L102.268 59.0049L100.222 53.4727H101.176L102.691 58.0205ZM190.249 58.0205H190.334L191.846 53.4727H192.784L190.625 59.3379C190.475 59.7513 190.316 60.0742 190.148 60.3066C189.981 60.5391 189.784 60.7017 189.559 60.7939C189.336 60.8896 189.061 60.9375 188.733 60.9375C188.675 60.9375 188.611 60.9345 188.539 60.9277C188.467 60.9243 188.4 60.9175 188.339 60.9072V60.1738C188.393 60.1841 188.454 60.1909 188.519 60.1943C188.583 60.1977 188.647 60.1992 188.708 60.1992C188.961 60.1992 189.168 60.1346 189.328 60.0049C189.492 59.875 189.624 59.6507 189.723 59.333L189.825 59.0049L187.78 53.4727H188.733L190.249 58.0205ZM172.83 53.375C173.298 53.3751 173.705 53.4952 174.05 53.7344C174.398 53.9702 174.669 54.3013 174.86 54.7285C175.052 55.1558 175.147 55.6572 175.147 56.2314V56.2412C175.147 56.8188 175.052 57.3218 174.86 57.749C174.669 58.1762 174.398 58.5074 174.05 58.7432C173.705 58.9789 173.298 59.0966 172.83 59.0967C172.577 59.0967 172.338 59.058 172.112 58.9795C171.89 58.8975 171.692 58.7841 171.518 58.6406C171.347 58.4971 171.21 58.3261 171.107 58.1279H171.025V60.8457H170.133V53.4727H171.025V54.3545H171.107C171.22 54.1497 171.362 53.9755 171.532 53.832C171.703 53.6851 171.898 53.5718 172.117 53.4932C172.336 53.4146 172.574 53.375 172.83 53.375ZM150.363 51.4268C150.883 51.4268 151.355 51.5293 151.778 51.7344C152.206 51.936 152.558 52.2188 152.835 52.5811C153.112 52.9398 153.286 53.3548 153.357 53.8262L153.353 53.8369H152.425L152.419 53.8262C152.337 53.5084 152.199 53.2348 152.004 53.0059C151.809 52.7735 151.571 52.5942 151.291 52.4678C151.014 52.3414 150.705 52.2783 150.363 52.2783C149.892 52.2783 149.481 52.4014 149.133 52.6475C148.788 52.8936 148.521 53.2422 148.333 53.6934C148.145 54.1445 148.051 54.6793 148.051 55.2979V55.3086C148.051 55.9236 148.145 56.4572 148.333 56.9082C148.521 57.3592 148.788 57.7081 149.133 57.9541C149.481 58.2 149.893 58.3232 150.368 58.3232C150.713 58.3232 151.026 58.2685 151.307 58.1592C151.587 58.0464 151.823 57.8867 152.015 57.6816C152.206 57.4732 152.339 57.2269 152.414 56.9434L152.425 56.9336H153.357V56.9434C153.275 57.3945 153.098 57.7881 152.824 58.123C152.551 58.4545 152.204 58.7129 151.783 58.8975C151.366 59.0819 150.894 59.1738 150.368 59.1738C149.699 59.1738 149.119 59.0164 148.631 58.7021C148.142 58.3877 147.764 57.9418 147.497 57.3643C147.234 56.7867 147.103 56.1014 147.103 55.3086V55.2979C147.103 54.5017 147.234 53.8148 147.497 53.2373C147.764 52.6597 148.14 52.2129 148.625 51.8984C149.114 51.584 149.693 51.4268 150.363 51.4268ZM12.751 53.375C13.2772 53.375 13.73 53.4898 14.1094 53.7188C14.4888 53.9478 14.7812 54.2759 14.9863 54.7031C15.1948 55.1304 15.2988 55.6402 15.2988 56.2314V56.2412C15.2988 56.829 15.1947 57.3365 14.9863 57.7637C14.7812 58.1909 14.4888 58.5215 14.1094 58.7539C13.7301 58.9828 13.2771 59.0966 12.751 59.0967C12.2283 59.0967 11.7753 58.9827 11.3926 58.7539C11.0132 58.5215 10.7192 58.1909 10.5107 57.7637C10.3057 57.3364 10.2031 56.8291 10.2031 56.2412V56.2314C10.2031 55.6401 10.3057 55.1304 10.5107 54.7031C10.7192 54.276 11.0132 53.9477 11.3926 53.7188C11.7753 53.4899 12.2282 53.375 12.751 53.375ZM28.0752 59H27.1836V58.1182H27.1016C26.9888 58.3231 26.8465 58.4986 26.6758 58.6455C26.5049 58.7891 26.3096 58.9009 26.0908 58.9795C25.8723 59.058 25.6349 59.0966 25.3789 59.0967C24.9141 59.0967 24.5068 58.979 24.1582 58.7432C23.8097 58.5074 23.54 58.176 23.3486 57.749C23.1572 57.3184 23.0615 56.8154 23.0615 56.2412V56.2314C23.0615 55.6538 23.1572 55.1509 23.3486 54.7236C23.54 54.2965 23.8082 53.9653 24.1533 53.7295C24.502 53.4937 24.9106 53.375 25.3789 53.375C25.6315 53.3751 25.8689 53.4161 26.0908 53.498C26.3164 53.5767 26.5171 53.6885 26.6914 53.832C26.8655 53.9755 27.0025 54.1467 27.1016 54.3447H27.1836V51.2783H28.0752V59ZM34.1709 53.375C34.557 53.375 34.899 53.4366 35.1963 53.5596C35.4971 53.6792 35.7388 53.8501 35.9199 54.0723C36.1044 54.2944 36.2168 54.5567 36.2578 54.8574H35.3809C35.3228 54.6388 35.1897 54.4609 34.9814 54.3242C34.7729 54.1875 34.501 54.1191 34.166 54.1191C33.9474 54.1191 33.7529 54.1549 33.582 54.2266C33.4111 54.2949 33.2759 54.3906 33.1768 54.5137C33.0777 54.6367 33.0283 54.7803 33.0283 54.9443V54.9541C33.0283 55.077 33.0602 55.1866 33.125 55.2822C33.1899 55.3779 33.291 55.4624 33.4277 55.5342C33.5644 55.6059 33.7408 55.669 33.9561 55.7236L34.8066 55.9287C35.3262 56.0552 35.7129 56.2358 35.9658 56.4717C36.2222 56.7075 36.3506 57.0244 36.3506 57.4209V57.4307C36.3506 57.7588 36.2524 58.0498 36.0576 58.3027C35.8629 58.5519 35.5982 58.7467 35.2637 58.8867C34.9323 59.0268 34.556 59.0966 34.1357 59.0967C33.7257 59.0967 33.3632 59.0351 33.0488 58.9121C32.7346 58.7857 32.4814 58.6101 32.29 58.3848C32.1021 58.1592 31.9903 57.894 31.9561 57.5898H32.8691C32.9444 57.8187 33.0909 58.0035 33.3096 58.1436C33.5283 58.2837 33.814 58.3535 34.166 58.3535C34.4155 58.3535 34.6343 58.3179 34.8223 58.2461C35.0137 58.1709 35.1641 58.0698 35.2734 57.9434C35.3828 57.8135 35.4375 57.6646 35.4375 57.4971V57.4873C35.4375 57.2994 35.3621 57.1406 35.2119 57.0107C35.0615 56.8774 34.8154 56.7695 34.4736 56.6875L33.6172 56.4824C33.2721 56.4004 32.9887 56.2939 32.7666 56.1641C32.5446 56.0309 32.3804 55.8689 32.2744 55.6777C32.1685 55.4829 32.1152 55.2534 32.1152 54.9902V54.9854C32.1152 54.6779 32.2043 54.4028 32.3818 54.1602C32.563 53.9175 32.8092 53.7261 33.1201 53.5859C33.4311 53.4458 33.7813 53.375 34.1709 53.375ZM52.915 53.375C53.3011 53.375 53.6431 53.4366 53.9404 53.5596C54.2412 53.6792 54.4829 53.8501 54.6641 54.0723C54.8486 54.2944 54.9609 54.5567 55.002 54.8574H54.125C54.0669 54.6388 53.9339 54.4609 53.7256 54.3242C53.5171 54.1875 53.2451 54.1191 52.9102 54.1191C52.6915 54.1191 52.497 54.1549 52.3262 54.2266C52.1553 54.2949 52.02 54.3906 51.9209 54.5137C51.8218 54.6367 51.7725 54.7803 51.7725 54.9443V54.9541C51.7725 55.077 51.8043 55.1866 51.8691 55.2822C51.9341 55.3779 52.0352 55.4624 52.1719 55.5342C52.3086 55.6059 52.485 55.669 52.7002 55.7236L53.5508 55.9287C54.0703 56.0552 54.457 56.2358 54.71 56.4717C54.9663 56.7075 55.0947 57.0244 55.0947 57.4209V57.4307C55.0947 57.7588 54.9966 58.0498 54.8018 58.3027C54.607 58.5519 54.3424 58.7467 54.0078 58.8867C53.6764 59.0268 53.3001 59.0966 52.8799 59.0967C52.4699 59.0967 52.1073 59.0351 51.793 58.9121C51.4788 58.7857 51.2255 58.6101 51.0342 58.3848C50.8462 58.1592 50.7344 57.894 50.7002 57.5898H51.6133C51.6885 57.8187 51.8351 58.0035 52.0537 58.1436C52.2725 58.2837 52.5581 58.3535 52.9102 58.3535C53.1596 58.3535 53.3784 58.3179 53.5664 58.2461C53.7578 58.1709 53.9082 58.0698 54.0176 57.9434C54.127 57.8135 54.1816 57.6646 54.1816 57.4971V57.4873C54.1816 57.2994 54.1063 57.1406 53.9561 57.0107C53.8057 56.8774 53.5595 56.7695 53.2178 56.6875L52.3613 56.4824C52.0162 56.4004 51.7329 56.2939 51.5107 56.1641C51.2888 56.0309 51.1245 55.8689 51.0186 55.6777C50.9126 55.4829 50.8594 55.2534 50.8594 54.9902V54.9854C50.8594 54.6779 50.9484 54.4028 51.126 54.1602C51.3071 53.9175 51.5533 53.7261 51.8643 53.5859C52.1752 53.4458 52.5255 53.375 52.915 53.375ZM70.9062 53.375C71.3571 53.3751 71.7379 53.4488 72.0488 53.5957C72.3633 53.7427 72.6011 53.9546 72.7617 54.2314C72.9258 54.5049 73.0078 54.833 73.0078 55.2158V59H72.1162V58.1846H72.0342C71.918 58.3793 71.7758 58.5449 71.6084 58.6816C71.4445 58.8182 71.2581 58.9224 71.0498 58.9941C70.8413 59.0625 70.6118 59.0967 70.3623 59.0967C70.0138 59.0967 69.6992 59.0307 69.4189 58.8975C69.1422 58.7642 68.9219 58.5741 68.7578 58.3281C68.5972 58.082 68.5166 57.791 68.5166 57.4561V57.4463C68.5166 57.1182 68.5957 56.8379 68.7529 56.6055C68.9101 56.3697 69.1387 56.185 69.4395 56.0518C69.7402 55.9185 70.1041 55.8394 70.5312 55.8154L72.1162 55.7188V55.2158C72.1162 54.874 72.0112 54.6143 71.8027 54.4365C71.5977 54.2555 71.2885 54.165 70.875 54.165C70.5435 54.165 70.2715 54.2251 70.0596 54.3447C69.8479 54.4609 69.7065 54.6266 69.6348 54.8418L69.6289 54.8574H68.7373L68.7422 54.8262C68.79 54.5356 68.9102 54.2827 69.1016 54.0674C69.2963 53.8488 69.547 53.6792 69.8545 53.5596C70.1621 53.4365 70.5132 53.375 70.9062 53.375ZM76.5713 53.375C76.9574 53.375 77.2994 53.4365 77.5967 53.5596C77.8973 53.6792 78.1382 53.8502 78.3193 54.0723C78.5039 54.2944 78.6172 54.5566 78.6582 54.8574H77.7812C77.7231 54.6387 77.5893 54.4609 77.3809 54.3242C77.1725 54.1876 76.9011 54.1192 76.5664 54.1191C76.3477 54.1191 76.1523 54.1548 75.9814 54.2266C75.8106 54.2949 75.6753 54.3906 75.5762 54.5137C75.4772 54.6367 75.4277 54.7804 75.4277 54.9443V54.9541C75.4277 55.0771 75.4605 55.1865 75.5254 55.2822C75.5903 55.3779 75.6914 55.4624 75.8281 55.5342C75.9647 55.6058 76.1405 55.669 76.3555 55.7236L77.207 55.9287C77.7262 56.0551 78.1123 56.236 78.3652 56.4717C78.6216 56.7075 78.75 57.0244 78.75 57.4209V57.4307C78.75 57.7588 78.6528 58.0498 78.458 58.3027C78.2632 58.5522 77.998 58.7466 77.6631 58.8867C77.3315 59.0269 76.9556 59.0967 76.5352 59.0967C76.125 59.0967 75.7627 59.0352 75.4482 58.9121C75.134 58.7857 74.8808 58.6102 74.6895 58.3848C74.5015 58.1592 74.3907 57.8939 74.3564 57.5898H75.2686C75.3438 57.8188 75.4913 58.0034 75.71 58.1436C75.9287 58.2836 76.2145 58.3535 76.5664 58.3535C76.8157 58.3535 77.0348 58.3178 77.2227 58.2461C77.4139 58.1709 77.5645 58.0697 77.6738 57.9434C77.7831 57.8135 77.8379 57.6644 77.8379 57.4971V57.4873C77.8379 57.2995 77.7623 57.1405 77.6123 57.0107C77.462 56.8775 77.2156 56.7695 76.874 56.6875L76.0176 56.4824C75.6724 56.4004 75.3882 56.2939 75.166 56.1641C74.9441 56.0309 74.7797 55.8689 74.6738 55.6777C74.5679 55.4829 74.5156 55.2534 74.5156 54.9902V54.9854C74.5156 54.6778 74.6045 54.4028 74.7822 54.1602C74.9634 53.9175 75.2095 53.7261 75.5205 53.5859C75.8315 53.4459 76.1817 53.375 76.5713 53.375ZM97.1768 53.375C97.6276 53.3751 98.0084 53.4488 98.3193 53.5957C98.6338 53.7427 98.8716 53.9546 99.0322 54.2314C99.1963 54.5049 99.2783 54.833 99.2783 55.2158V59H98.3867V58.1846H98.3047C98.1885 58.3793 98.0463 58.5449 97.8789 58.6816C97.715 58.8182 97.5286 58.9224 97.3203 58.9941C97.1118 59.0625 96.8823 59.0967 96.6328 59.0967C96.2843 59.0967 95.9697 59.0307 95.6895 58.8975C95.4127 58.7642 95.1924 58.5741 95.0283 58.3281C94.8677 58.082 94.7871 57.791 94.7871 57.4561V57.4463C94.7871 57.1182 94.8662 56.8379 95.0234 56.6055C95.1806 56.3697 95.4092 56.185 95.71 56.0518C96.0107 55.9185 96.3746 55.8394 96.8018 55.8154L98.3867 55.7188V55.2158C98.3867 54.874 98.2817 54.6143 98.0732 54.4365C97.8682 54.2555 97.559 54.165 97.1455 54.165C96.814 54.165 96.542 54.2251 96.3301 54.3447C96.1184 54.4609 95.977 54.6266 95.9053 54.8418L95.8994 54.8574H95.0078L95.0127 54.8262C95.0605 54.5356 95.1807 54.2827 95.3721 54.0674C95.5668 53.8488 95.8176 53.6792 96.125 53.5596C96.4326 53.4365 96.7837 53.375 97.1768 53.375ZM117.74 53.375C118.243 53.375 118.673 53.4913 119.032 53.7236C119.395 53.9561 119.672 54.2812 119.863 54.6982C120.058 55.1117 120.155 55.5935 120.155 56.1436V56.4922H116.18C116.186 56.8591 116.251 57.1758 116.377 57.4414C116.51 57.718 116.7 57.9317 116.946 58.082C117.192 58.2288 117.483 58.3027 117.817 58.3027C118.067 58.3027 118.284 58.2686 118.469 58.2002C118.653 58.1319 118.805 58.0444 118.925 57.9385C119.044 57.8325 119.128 57.7246 119.176 57.6152L119.196 57.5693H120.089L120.078 57.6104C120.03 57.7982 119.945 57.9815 119.822 58.1592C119.703 58.3334 119.547 58.4922 119.355 58.6357C119.164 58.7758 118.937 58.8882 118.674 58.9736C118.414 59.0557 118.122 59.0967 117.797 59.0967C117.271 59.0967 116.818 58.9804 116.438 58.748C116.062 58.5156 115.771 58.1875 115.566 57.7637C115.365 57.3365 115.265 56.8342 115.265 56.2568V56.252C115.265 55.6812 115.365 55.1797 115.566 54.749C115.771 54.3184 116.061 53.9819 116.434 53.7393C116.806 53.4968 117.241 53.375 117.74 53.375ZM157.064 53.375C157.591 53.375 158.044 53.4898 158.423 53.7188C158.802 53.9478 159.095 54.2759 159.3 54.7031C159.508 55.1304 159.612 55.6402 159.612 56.2314V56.2412C159.612 56.829 159.508 57.3365 159.3 57.7637C159.095 58.1909 158.802 58.5215 158.423 58.7539C158.044 58.9828 157.591 59.0966 157.064 59.0967C156.542 59.0967 156.089 58.9827 155.706 58.7539C155.327 58.5215 155.033 58.1909 154.824 57.7637C154.619 57.3364 154.517 56.8291 154.517 56.2412V56.2314C154.517 55.6401 154.619 55.1304 154.824 54.7031C155.033 54.276 155.327 53.9477 155.706 53.7188C156.089 53.4899 156.542 53.375 157.064 53.375ZM178.603 53.375C179.054 53.375 179.435 53.4487 179.746 53.5957C180.06 53.7427 180.298 53.9546 180.459 54.2314C180.623 54.5048 180.705 54.8331 180.705 55.2158V59H179.812V58.1846H179.73C179.614 58.3793 179.472 58.545 179.305 58.6816C179.141 58.8183 178.954 58.9224 178.746 58.9941C178.538 59.0625 178.309 59.0966 178.06 59.0967C177.711 59.0967 177.396 59.0306 177.116 58.8975C176.839 58.7642 176.618 58.5742 176.454 58.3281C176.293 58.082 176.214 57.791 176.214 57.4561V57.4463C176.214 57.1182 176.292 56.8379 176.449 56.6055C176.606 56.3696 176.836 56.1851 177.137 56.0518C177.437 55.9185 177.801 55.8393 178.229 55.8154L179.812 55.7188V55.2158C179.812 54.8741 179.708 54.6143 179.5 54.4365C179.295 54.2554 178.986 54.1651 178.572 54.165C178.241 54.165 177.969 54.2251 177.757 54.3447C177.545 54.4609 177.403 54.6265 177.331 54.8418L177.326 54.8574H176.434L176.439 54.8262C176.487 54.5357 176.606 54.2827 176.798 54.0674C176.993 53.8486 177.244 53.6792 177.552 53.5596C177.859 53.4366 178.21 53.375 178.603 53.375ZM57.6992 53.4727H58.9092V54.2109H57.6992V57.3389C57.6993 57.6633 57.7608 57.8975 57.8838 58.041C58.0069 58.1809 58.2122 58.251 58.499 58.251C58.5773 58.251 58.6437 58.2495 58.6982 58.2461C58.7563 58.2427 58.8271 58.2373 58.9092 58.2305V58.9893C58.8237 59.0029 58.7378 59.0151 58.6523 59.0254C58.5669 59.0356 58.4795 59.041 58.3906 59.041C57.8235 59.041 57.4116 58.9262 57.1553 58.6973C56.9024 58.4683 56.7764 58.0906 56.7764 57.5645V54.2109H55.9043V53.4727H56.7764V52.042H57.6992V53.4727ZM81.3545 53.4727H82.5645V54.2109H81.3545V57.3389C81.3546 57.6633 81.4161 57.8975 81.5391 58.041C81.6621 58.1811 81.8673 58.251 82.1543 58.251C82.2329 58.251 82.2998 58.2495 82.3545 58.2461C82.4126 58.2427 82.4825 58.2373 82.5645 58.2305V58.9893C82.4792 59.0029 82.3939 59.0151 82.3086 59.0254C82.2232 59.0356 82.1357 59.041 82.0469 59.041C81.4798 59.041 81.0679 58.926 80.8115 58.6973C80.5587 58.4683 80.4317 58.0906 80.4316 57.5645V54.2109H79.5605V53.4727H80.4316V52.042H81.3545V53.4727ZM128.943 53.4727H130.153V54.2109H128.943V57.3389C128.943 57.6633 129.005 57.8975 129.128 58.041C129.251 58.1809 129.456 58.251 129.743 58.251C129.821 58.251 129.888 58.2495 129.942 58.2461C130 58.2427 130.071 58.2373 130.153 58.2305V58.9893C130.068 59.0029 129.982 59.0151 129.896 59.0254C129.811 59.0356 129.724 59.041 129.635 59.041C129.068 59.041 128.656 58.9262 128.399 58.6973C128.147 58.4683 128.021 58.0906 128.021 57.5645V54.2109H127.148V53.4727H128.021V52.042H128.943V53.4727ZM2.89648 57.6152H2.95801L4.61426 51.6016H5.54785L7.20312 57.6152H7.26465L8.73633 51.6016H9.7002L7.68555 59H6.81348L5.11133 53.1602H5.0498L3.34766 59H2.47656L0.461914 51.6016H1.42578L2.89648 57.6152ZM19.1338 53.375C19.2192 53.375 19.3028 53.3804 19.3848 53.3906C19.4702 53.3975 19.5356 53.4043 19.5801 53.4111V54.2773C19.488 54.2603 19.3973 54.249 19.3086 54.2422C19.2231 54.2319 19.1304 54.2266 19.0312 54.2266C18.7476 54.2266 18.4961 54.2827 18.2773 54.3955C18.0587 54.5083 17.8862 54.6656 17.7598 54.8672C17.6367 55.0688 17.5752 55.3052 17.5752 55.5752V59H16.6836V53.4727H17.5752V54.293H17.6572C17.7632 54.0025 17.9425 53.7768 18.1953 53.6162C18.4482 53.4556 18.7612 53.375 19.1338 53.375ZM21.626 59H20.7334V51.2783H21.626V59ZM42.6611 51.2275C42.7704 51.2275 42.8731 51.232 42.9688 51.2422C43.0678 51.249 43.1636 51.2613 43.2559 51.2783V51.9912C43.2012 51.981 43.1381 51.9741 43.0664 51.9707C42.9946 51.9673 42.9194 51.9658 42.8408 51.9658C42.523 51.9658 42.2944 52.0426 42.1543 52.1963C42.0176 52.3501 41.9493 52.5787 41.9492 52.8828V53.4727H43.2051V54.2109H41.9492V59H41.0566V54.2109H40.1387V53.4727H41.0566V52.8574C41.0566 52.4884 41.1168 52.1845 41.2363 51.9453C41.3594 51.7027 41.5401 51.5225 41.7793 51.4062C42.0185 51.2866 42.3126 51.2276 42.6611 51.2275ZM45.4043 59H44.5127V53.4727H45.4043V59ZM49.5371 53.375C49.6224 53.375 49.7062 53.3804 49.7881 53.3906C49.8733 53.3974 49.938 53.4043 49.9824 53.4111V54.2773C49.8902 54.2603 49.7997 54.249 49.7109 54.2422C49.6256 54.232 49.5335 54.2266 49.4346 54.2266C49.151 54.2266 48.8994 54.2828 48.6807 54.3955C48.462 54.5083 48.2895 54.6656 48.1631 54.8672C48.04 55.0688 47.9785 55.3052 47.9785 55.5752V59H47.0859V53.4727H47.9785V54.293H48.0605C48.1665 54.0025 48.3457 53.7768 48.5986 53.6162C48.8515 53.4556 49.1646 53.375 49.5371 53.375ZM67.7988 52.4316H64.2305V54.9746H67.5068V55.7949H64.2305V59H63.3076V51.6016H67.7988V52.4316ZM91.5469 51.6016C92.0117 51.6016 92.4219 51.7002 92.7773 51.8984C93.1328 52.0967 93.4116 52.374 93.6133 52.7295C93.8182 53.0849 93.9209 53.4967 93.9209 53.9648V53.9756C93.9208 54.4436 93.8182 54.8571 93.6133 55.2158C93.4116 55.5747 93.1328 55.855 92.7773 56.0566C92.4219 56.2583 92.0117 56.3594 91.5469 56.3594H89.6807V59H88.7578V51.6016H91.5469ZM112.173 53.375C112.549 53.375 112.866 53.4458 113.126 53.5859C113.389 53.7261 113.59 53.9312 113.727 54.2012C113.863 54.4676 113.932 54.7938 113.932 55.1797V59H113.039V55.3848C113.039 55.1114 112.997 54.8857 112.911 54.708C112.829 54.5269 112.702 54.3926 112.531 54.3037C112.36 54.2115 112.145 54.1651 111.886 54.165C111.629 54.165 111.405 54.2227 111.214 54.3389C111.022 54.4551 110.874 54.6108 110.768 54.8057C110.662 54.997 110.609 55.2106 110.609 55.4463V59H109.717V55.2471C109.717 55.0284 109.669 54.8383 109.573 54.6777C109.481 54.5138 109.348 54.3867 109.174 54.2979C109.003 54.209 108.801 54.165 108.568 54.165C108.329 54.165 108.112 54.228 107.917 54.3545C107.726 54.4809 107.574 54.6519 107.461 54.8672C107.352 55.0791 107.297 55.3154 107.297 55.5752V59H106.405V53.4727H107.297V54.3135H107.379C107.502 54.0161 107.69 53.7852 107.943 53.6211C108.2 53.4572 108.509 53.375 108.871 53.375C109.121 53.375 109.345 53.416 109.543 53.498C109.741 53.5801 109.912 53.6949 110.056 53.8418C110.199 53.9853 110.313 54.1534 110.398 54.3447H110.48C110.58 54.1499 110.713 53.9805 110.881 53.8369C111.048 53.6899 111.241 53.5767 111.46 53.498C111.682 53.416 111.92 53.375 112.173 53.375ZM124.124 53.375C124.746 53.3751 125.222 53.553 125.554 53.9082C125.889 54.2603 126.057 54.7646 126.057 55.4209V59H125.164V55.6367C125.164 55.138 125.058 54.7686 124.847 54.5293C124.638 54.2866 124.313 54.165 123.872 54.165C123.578 54.1651 123.324 54.2281 123.108 54.3545C122.893 54.4809 122.726 54.6603 122.606 54.8926C122.49 55.125 122.432 55.4038 122.432 55.7285V59H121.54V53.4727H122.432V54.3037H122.514C122.654 54.0098 122.856 53.7817 123.119 53.6211C123.382 53.4572 123.718 53.375 124.124 53.375ZM140.33 59H139.361L138.619 56.8818H135.674L134.932 59H133.962L136.689 51.6016H137.603L140.33 59ZM142.55 59H141.627V51.6016H142.55V59ZM166.765 53.375C167.141 53.375 167.458 53.4458 167.718 53.5859C167.981 53.7261 168.182 53.9312 168.318 54.2012C168.455 54.4676 168.523 54.7938 168.523 55.1797V59H167.631V55.3848C167.631 55.1114 167.588 54.8857 167.503 54.708C167.421 54.5269 167.294 54.3926 167.123 54.3037C166.952 54.2115 166.737 54.1651 166.478 54.165C166.221 54.165 165.997 54.2227 165.806 54.3389C165.614 54.4551 165.465 54.6108 165.359 54.8057C165.253 54.997 165.201 55.2106 165.201 55.4463V59H164.309V55.2471C164.309 55.0284 164.261 54.8383 164.165 54.6777C164.073 54.5138 163.94 54.3867 163.766 54.2979C163.595 54.209 163.393 54.165 163.16 54.165C162.921 54.165 162.704 54.228 162.509 54.3545C162.317 54.4809 162.165 54.6519 162.053 54.8672C161.943 55.0791 161.889 55.3154 161.889 55.5752V59H160.997V53.4727H161.889V54.3135H161.971C162.094 54.0161 162.282 53.7852 162.535 53.6211C162.791 53.4572 163.101 53.375 163.463 53.375C163.712 53.375 163.937 53.416 164.135 53.498C164.333 53.5801 164.504 53.6949 164.647 53.8418C164.791 53.9853 164.905 54.1534 164.99 54.3447H165.072C165.171 54.1499 165.305 53.9805 165.473 53.8369C165.64 53.6899 165.833 53.5767 166.052 53.498C166.274 53.416 166.512 53.375 166.765 53.375ZM184.919 53.375C185.541 53.375 186.018 53.5527 186.35 53.9082C186.685 54.2603 186.852 54.7646 186.852 55.4209V59H185.96V55.6367C185.96 55.1378 185.853 54.7686 185.642 54.5293C185.433 54.2867 185.109 54.1651 184.668 54.165C184.374 54.165 184.12 54.2282 183.904 54.3545C183.689 54.4809 183.521 54.6602 183.401 54.8926C183.285 55.125 183.228 55.4038 183.228 55.7285V59H182.335V53.4727H183.228V54.3037H183.31C183.45 54.0098 183.651 53.7817 183.914 53.6211C184.177 53.4571 184.512 53.375 184.919 53.375ZM70.6396 56.5283C70.2194 56.5522 69.9116 56.6397 69.7168 56.79C69.5254 56.9404 69.4297 57.1523 69.4297 57.4258V57.4355C69.4297 57.7158 69.5352 57.9346 69.7471 58.0918C69.959 58.2456 70.2256 58.3232 70.5469 58.3232C70.8511 58.3232 71.1216 58.2632 71.3574 58.1436C71.5931 58.0205 71.7779 57.8548 71.9111 57.6465C72.0479 57.438 72.1162 57.2017 72.1162 56.9385V56.4336L70.6396 56.5283ZM96.9102 56.5283C96.4899 56.5522 96.1821 56.6397 95.9873 56.79C95.7959 56.9404 95.7002 57.1523 95.7002 57.4258V57.4355C95.7002 57.7158 95.8057 57.9346 96.0176 58.0918C96.2295 58.2456 96.4961 58.3232 96.8174 58.3232C97.1216 58.3232 97.3921 58.2632 97.6279 58.1436C97.8636 58.0205 98.0484 57.8548 98.1816 57.6465C98.3184 57.438 98.3867 57.2017 98.3867 56.9385V56.4336L96.9102 56.5283ZM178.336 56.5283C177.916 56.5522 177.608 56.6396 177.413 56.79C177.222 56.9404 177.126 57.1524 177.126 57.4258V57.4355C177.126 57.7158 177.232 57.9346 177.444 58.0918C177.656 58.2455 177.923 58.3232 178.244 58.3232C178.548 58.3232 178.818 58.2631 179.054 58.1436C179.289 58.0206 179.474 57.8548 179.607 57.6465C179.744 57.438 179.812 57.2017 179.812 56.9385V56.4336L178.336 56.5283ZM12.751 54.165C12.4025 54.165 12.1069 54.2472 11.8643 54.4111C11.6216 54.5718 11.4346 54.8057 11.3047 55.1133C11.1782 55.4209 11.1152 55.794 11.1152 56.2314V56.2412C11.1152 56.6752 11.1783 57.046 11.3047 57.3535C11.4346 57.6611 11.6216 57.8975 11.8643 58.0615C12.1068 58.2254 12.4026 58.3076 12.751 58.3076C13.0994 58.3076 13.3951 58.2255 13.6377 58.0615C13.8804 57.8975 14.0649 57.6611 14.1914 57.3535C14.3212 57.0459 14.3867 56.6752 14.3867 56.2412V56.2314C14.3867 55.7939 14.3213 55.4209 14.1914 55.1133C14.065 54.8057 13.8803 54.5718 13.6377 54.4111C13.3951 54.2471 13.0995 54.1651 12.751 54.165ZM25.584 54.165C25.249 54.165 24.9595 54.2485 24.7168 54.416C24.4776 54.5801 24.2929 54.8165 24.1631 55.124C24.0368 55.4315 23.9736 55.801 23.9736 56.2314V56.2412C23.9736 56.6684 24.0366 57.0376 24.1631 57.3486C24.293 57.6562 24.4776 57.894 24.7168 58.0615C24.9595 58.2256 25.249 58.3076 25.584 58.3076C25.9187 58.3075 26.2077 58.224 26.4502 58.0566C26.6928 57.8892 26.8789 57.6513 27.0088 57.3438C27.1387 57.0327 27.2041 56.665 27.2041 56.2412V56.2314C27.2041 55.8043 27.1386 55.4365 27.0088 55.1289C26.8789 54.8214 26.6928 54.5835 26.4502 54.416C26.2076 54.2486 25.9187 54.1651 25.584 54.165ZM157.064 54.165C156.716 54.165 156.42 54.2472 156.178 54.4111C155.935 54.5718 155.748 54.8057 155.618 55.1133C155.492 55.4209 155.429 55.794 155.429 56.2314V56.2412C155.429 56.6752 155.492 57.046 155.618 57.3535C155.748 57.6611 155.935 57.8975 156.178 58.0615C156.42 58.2254 156.716 58.3076 157.064 58.3076C157.413 58.3076 157.709 58.2255 157.951 58.0615C158.194 57.8975 158.378 57.6611 158.505 57.3535C158.635 57.0459 158.7 56.6752 158.7 56.2412V56.2314C158.7 55.7939 158.635 55.4209 158.505 55.1133C158.378 54.8057 158.194 54.5718 157.951 54.4111C157.709 54.2471 157.413 54.1651 157.064 54.165ZM172.625 54.165C172.29 54.165 172 54.2485 171.758 54.416C171.515 54.5835 171.329 54.8214 171.199 55.1289C171.069 55.4365 171.005 55.8043 171.005 56.2314V56.2412C171.005 56.665 171.069 57.0327 171.199 57.3438C171.329 57.6513 171.515 57.8892 171.758 58.0566C172 58.2241 172.29 58.3076 172.625 58.3076C172.963 58.3075 173.252 58.2255 173.491 58.0615C173.73 57.894 173.914 57.6562 174.04 57.3486C174.17 57.0376 174.234 56.6684 174.234 56.2412V56.2314C174.234 55.8011 174.17 55.4315 174.04 55.124C173.914 54.8165 173.73 54.5801 173.491 54.416C173.252 54.2486 172.963 54.1651 172.625 54.165ZM87.0605 56.4365H83.6152V55.6055H87.0605V56.4365ZM135.948 56.0977H138.345L137.188 52.7959H137.105L135.948 56.0977ZM117.735 54.1699C117.438 54.1699 117.171 54.2437 116.936 54.3906C116.703 54.5342 116.519 54.7476 116.382 55.0312C116.279 55.2443 116.215 55.494 116.189 55.7803H119.247C119.224 55.4775 119.162 55.2194 119.063 55.0059C118.934 54.7257 118.754 54.5166 118.525 54.3799C118.296 54.2397 118.033 54.1699 117.735 54.1699ZM89.6807 55.5391H91.3115C91.8411 55.539 92.2516 55.4023 92.542 55.1289C92.8324 54.8521 92.9775 54.4706 92.9775 53.9854V53.9756C92.9775 53.487 92.8323 53.1054 92.542 52.832C92.2516 52.5587 91.8411 52.422 91.3115 52.4219H89.6807V55.5391ZM30.4443 54.5186H29.7822L30.2285 51.6016H31.249L30.4443 54.5186ZM44.9639 51.1758C45.1346 51.1759 45.2799 51.236 45.3994 51.3555C45.5189 51.4751 45.5791 51.6202 45.5791 51.791C45.5791 51.9584 45.5189 52.1036 45.3994 52.2266C45.2799 52.3461 45.1346 52.4061 44.9639 52.4062C44.7964 52.4062 44.6504 52.3462 44.5273 52.2266C44.4079 52.1036 44.3486 51.9584 44.3486 51.791C44.3486 51.6202 44.4079 51.4751 44.5273 51.3555C44.6504 51.2358 44.7964 51.1758 44.9639 51.1758ZM14.2969 7.16309C22.1952 7.16309 28.5936 13.6235 28.5938 21.5928C28.5938 29.5622 22.1953 36.0234 14.2969 36.0234C11.4004 36.0234 8.71204 35.1396 6.45996 33.6445V43H0V21.5928C0.000139673 13.6235 6.40109 7.16315 14.2969 7.16309ZM76.2842 25.6465H76.3721L83.0576 8.10449H89.792L76.4209 43H69.6865L72.9609 34.4424L62.8252 8.10449H69.5986L76.2842 25.6465ZM47.2002 7.31348C49.1704 7.31349 51.0228 7.68471 52.7578 8.43164C54.4928 9.17366 56.0127 10.1828 57.3262 11.4541C58.6298 12.7254 59.6593 14.2295 60.4141 15.9658C61.1688 17.707 61.541 19.5672 61.541 21.5508C61.541 22.08 61.5119 22.5847 61.4531 23.0645C61.3845 23.5442 61.2964 24.0489 61.1689 24.5781H39.917C40.4758 26.2204 41.4072 27.5217 42.7305 28.4863C44.0537 29.4458 45.5437 29.9258 47.2002 29.9258C48.7096 29.9258 50.1503 29.5935 51.5127 28.9258C52.8849 28.258 53.9143 27.3383 54.6299 26.1562L59.6006 29.416C58.2871 31.37 56.5422 32.9284 54.376 34.0908C52.2097 35.2533 49.8174 35.8369 47.2002 35.8369C45.2103 35.8369 43.3182 35.4713 41.5537 34.7441C39.7892 34.012 38.2403 33.0126 36.9268 31.7412C35.6034 30.4699 34.5546 28.9658 33.79 27.2295C33.0157 25.4932 32.6338 23.5987 32.6338 21.5508C32.6338 19.5027 33.0156 17.6123 33.79 15.876C34.5546 14.1348 35.6034 12.6307 36.9268 11.3594C38.2402 10.0881 39.7893 9.09417 41.5537 8.38184C43.3182 7.66948 45.2103 7.31348 47.2002 7.31348ZM105.594 7.31348C107.564 7.31349 109.397 7.67911 111.103 8.40625C112.808 9.13346 114.318 10.1673 115.642 11.498L111.122 15.9658C110.416 15.2535 109.593 14.689 108.633 14.2686C107.682 13.8481 106.672 13.6406 105.594 13.6406C104.515 13.6406 103.506 13.8481 102.555 14.2686C101.594 14.689 100.771 15.2535 100.065 15.9658C99.3596 16.6831 98.7906 17.5188 98.3789 18.4785C97.9672 19.4431 97.752 20.4675 97.752 21.5508C97.752 22.6389 97.9672 23.6681 98.3789 24.6475C98.7906 25.6219 99.3597 26.4674 100.065 27.1797C100.771 27.8969 101.594 28.4613 102.555 28.8818C103.506 29.2974 104.515 29.5098 105.594 29.5098C106.672 29.5097 107.682 29.2974 108.633 28.8818C109.593 28.4614 110.416 27.8969 111.122 27.1797L115.642 31.6465C114.318 32.9525 112.808 33.9767 111.103 34.7188C109.397 35.4657 107.564 35.8369 105.594 35.8369C103.565 35.8369 101.663 35.4809 99.8789 34.7686C98.0948 34.0513 96.5459 33.0518 95.2422 31.7656C93.9385 30.4794 92.8993 28.9658 92.1348 27.2295C91.3604 25.4932 90.9786 23.5987 90.9785 21.5508C90.9785 19.5027 91.3604 17.6123 92.1348 15.876C92.8993 14.1349 93.9386 12.6316 95.2422 11.3604C96.5459 10.089 98.0948 9.09419 99.8789 8.38184C101.663 7.66952 103.565 7.31348 105.594 7.31348ZM168.79 9.35547C171.042 7.86026 173.731 6.97656 176.628 6.97656C184.526 6.97677 190.925 13.438 190.925 21.4072C190.925 29.3764 184.526 35.8367 176.628 35.8369C168.732 35.8369 162.331 29.3765 162.331 21.4072V0H168.79V9.35547ZM138.559 23.2295C138.559 26.4887 141.178 29.1308 144.408 29.1309H144.455C147.685 29.1307 150.302 26.4887 150.302 23.2295V8.10449H156.762V23.2246C156.762 30.0988 151.241 35.6708 144.431 35.6709C137.62 35.6709 132.099 30.0989 132.099 23.2246V8.10449H138.559V23.2295ZM126.562 35.0459H120.102V0.145508H126.562V35.0459ZM14.2969 13.6758C9.96676 13.6758 6.45524 17.2206 6.45508 21.5928C6.45508 25.9651 9.96666 29.5097 14.2969 29.5098C18.6296 29.5098 22.1416 25.9652 22.1416 21.5928C22.1414 17.2205 18.6295 13.6758 14.2969 13.6758ZM176.628 13.4902C172.298 13.4902 168.785 17.0348 168.785 21.4072C168.785 25.7795 172.298 29.3242 176.628 29.3242C180.96 29.324 184.472 25.7794 184.472 21.4072C184.472 17.035 180.96 13.4904 176.628 13.4902ZM47.2002 13.502C45.5437 13.502 44.0538 13.9818 42.7305 14.9463C41.4071 15.906 40.4757 17.2072 39.917 18.8545H54.5322C53.9833 17.2072 53.0421 15.906 51.7188 14.9463C50.3955 13.9818 48.8958 13.502 47.2002 13.502ZM193.587 7.76758H192.479V10.7871H191.723V7.76758H190.614V7.13184H193.587V7.76758ZM196.013 9.58789H196.057L197.057 7.13184H198V10.7871H197.259V8.40723H197.229L196.294 10.7686H195.782L194.847 8.39941H194.818V10.7861H194.076V7.13184H195.02L196.013 9.58789Z" fill="#004FE0"/>
</svg>
