<svg width="121" height="26" viewBox="0 0 121 26" fill="none" xmlns="http://www.w3.org/2000/svg">
<path d="M37.5547 13.9456C37.5128 14.2358 37.4589 14.5409 37.381 14.8609H24.3937C24.7352 15.854 25.3043 16.6406 26.113 17.2239C26.9217 17.8042 27.8322 18.0943 28.8446 18.0943C29.7671 18.0943 30.6477 17.8939 31.4804 17.4901C32.3191 17.0863 32.9481 16.5299 33.3854 15.8151L36.4225 17.7863C35.6198 18.9678 34.5535 19.91 33.2296 20.6129C31.9058 21.3158 30.4441 21.6687 28.8447 21.6687C27.6286 21.6687 26.4725 21.4474 25.3942 21.0077C24.3159 20.565 23.3694 19.9608 22.5667 19.1921C21.758 18.4234 21.117 17.5141 20.6497 16.4642C20.1765 15.4143 19.9429 14.2687 19.9429 13.0303C19.9429 11.792 20.1765 10.6494 20.6497 9.59951C21.117 8.54664 21.758 7.63733 22.5667 6.86862C23.3694 6.0999 24.3159 5.49869 25.3942 5.06796C26.4725 4.63724 27.6286 4.42188 28.8447 4.42188C30.0487 4.42188 31.1809 4.64622 32.2412 5.09789C33.3015 5.54655 34.2301 6.15674 35.0328 6.92545C35.8295 7.69417 36.4585 8.60348 36.9198 9.65338C37.381 10.7062 37.6087 11.8309 37.6087 13.0304C37.6087 13.3504 37.5906 13.6555 37.5547 13.9456ZM31.6062 9.03721C30.7975 8.45393 29.8809 8.1638 28.8446 8.1638C27.8322 8.1638 26.9217 8.45393 26.1129 9.03721C25.3042 9.61748 24.7351 10.4042 24.3937 11.4002H33.3254C32.99 10.4042 32.4149 9.61748 31.6062 9.03721Z" fill="#D0D4D9"/>
<path d="M42.5864 25.9998L44.5872 20.8252L38.3931 4.90039H42.5325L46.6179 15.5069H46.6719L50.7573 4.90039H54.8728L46.7018 25.9998H42.5864Z" fill="#D0D4D9"/>
<path d="M66.3864 8.62739C65.8054 8.37315 65.1883 8.24752 64.5294 8.24752C63.8704 8.24752 63.2534 8.37315 62.6723 8.62739C62.0853 8.88163 61.5821 9.22262 61.1507 9.65335C60.7194 10.087 60.372 10.5926 60.1204 11.1728C59.8688 11.7561 59.737 12.3753 59.737 13.0303C59.737 13.6884 59.8688 14.3105 60.1204 14.9028C60.372 15.492 60.7194 16.0035 61.1507 16.4342C61.5821 16.8679 62.0852 17.2089 62.6723 17.4632C63.2534 17.7145 63.8704 17.8431 64.5294 17.8431C65.1883 17.8431 65.8053 17.7145 66.3864 17.4632C66.9735 17.209 67.4767 16.868 67.908 16.4342L70.6696 19.1352C69.8609 19.9249 68.9383 20.544 67.896 20.9927C66.8537 21.4444 65.7334 21.6687 64.5294 21.6687C63.2894 21.6687 62.1272 21.4533 61.037 21.0226C59.9467 20.5889 59.0002 19.9847 58.2035 19.207C57.4068 18.4293 56.7718 17.514 56.3045 16.4642C55.8313 15.4143 55.5977 14.2687 55.5977 13.0303C55.5977 11.792 55.8313 10.6494 56.3045 9.59951C56.7718 8.54664 57.4068 7.63733 58.2035 6.86862C59.0002 6.0999 59.9467 5.49869 61.037 5.06796C62.1272 4.63724 63.2894 4.42188 64.5294 4.42188C65.7335 4.42188 66.8537 4.64322 67.896 5.08292C68.9383 5.52263 69.8609 6.14775 70.6696 6.95237L67.908 9.65335C67.4767 9.22262 66.9735 8.88163 66.3864 8.62739Z" fill="#D0D4D9"/>
<path d="M77.3432 0.0878906V21.1903H73.3955V0.0878906H77.3432Z" fill="#D0D4D9"/>
<path d="M8.73705 4.33206C3.91176 4.33206 0 8.23846 0 13.0572V26.0009H3.94768V20.3439C5.32399 21.248 6.96685 21.7823 8.73702 21.7823C13.5638 21.7823 17.4741 17.8759 17.4741 13.0572C17.4741 8.23846 13.5638 4.33206 8.73705 4.33206ZM8.73705 17.8441C6.09078 17.8441 3.9447 15.701 3.9447 13.0572C3.9447 10.4134 6.09078 8.27027 8.73705 8.27027C11.3848 8.27027 13.5309 10.4134 13.5309 13.0572C13.5309 15.701 11.3848 17.8441 8.73705 17.8441Z" fill="#D0D4D9"/>
<path d="M116.676 12.9437C116.676 8.12504 112.766 4.21861 107.939 4.21861C106.169 4.21861 104.526 4.75289 103.15 5.65697V0H99.2021V12.9437C99.2021 17.7625 103.114 21.6689 107.939 21.6689C112.766 21.6689 116.676 17.7625 116.676 12.9437ZM112.733 12.9437C112.733 15.5875 110.587 17.7307 107.939 17.7307C105.293 17.7307 103.147 15.5875 103.147 12.9437C103.147 10.3 105.293 8.15682 107.939 8.15682C110.587 8.15682 112.733 10.3 112.733 12.9437Z" fill="#D0D4D9"/>
<path d="M91.8513 4.90039V14.0454C91.8513 16.0162 90.2518 17.6138 88.278 17.6138H88.2495C86.2757 17.6138 84.6747 16.0162 84.6747 14.0454V4.90039H80.7271V14.0428C80.7271 18.1993 84.1012 21.5685 88.263 21.5685C92.4249 21.5685 95.799 18.1993 95.799 14.0428V4.90039H91.8513Z" fill="#D0D4D9"/>
<path d="M116.486 4.69693V4.3125H118.303V4.69693H117.626V6.5224H117.164V4.69693H116.486Z" fill="#D0D4D9"/>
<path d="M118.603 4.31253H119.179L119.786 5.79751H119.812L120.424 4.31253H121V6.5224H120.547V5.08356H120.529L119.958 6.5114H119.645L119.073 5.07914H119.056V6.52237H118.603L118.603 4.31253Z" fill="#D0D4D9"/>
</svg>
