<svg width="60" height="60" viewBox="0 0 60 60" fill="none" xmlns="http://www.w3.org/2000/svg">
<path d="M32.8056 17.4124C33.2344 16.8895 34.0064 16.8126 34.5292 17.2415C36.0035 18.4465 37.4582 19.7608 38.8427 21.1497C43.7925 26.1004 47.6027 31.624 49.5712 36.7014C51.6661 42.1054 51.4453 46.4557 48.9501 48.9514C47.5779 50.3238 45.6626 51.0022 43.3349 51.0022C40.5578 51.0022 37.1966 50.0296 33.4843 48.1057C32.8839 47.7953 32.6504 47.0517 32.9608 46.4553C33.2712 45.8549 34.0109 45.6224 34.6112 45.9329C40.2512 48.8616 45.0827 49.3553 47.2186 47.219C50.6529 43.7834 47.4099 33.1878 37.1102 22.8821C35.7789 21.5546 34.3904 20.2919 32.9774 19.136C32.4549 18.7071 32.3769 17.9351 32.8056 17.4124ZM40.5243 33.3792C40.9571 32.8606 41.7291 32.7913 42.2518 33.2239C42.7705 33.6569 42.84 34.4295 42.4071 34.9524C41.2963 36.2839 40.1001 37.5912 38.8505 38.8411C31.1644 46.5287 22.6526 50.9768 16.6532 50.9768L16.6454 50.9729C14.3462 50.9729 12.419 50.3189 11.0468 48.9465C8.27372 46.173 8.33888 41.0223 11.2304 34.8215C11.5162 34.209 12.2427 33.9432 12.8593 34.2288C13.4758 34.5146 13.7376 35.246 13.452 35.8586C11.0588 40.9932 10.8055 45.238 12.7821 47.2151C16.217 50.6501 26.8104 47.4063 37.1142 37.1047C38.3108 35.9079 39.4584 34.6536 40.5243 33.3792ZM11.0458 11.0354C13.8188 8.25773 18.9693 8.32695 25.1688 11.219C25.7813 11.505 26.0464 12.2321 25.7606 12.8489C25.4748 13.4616 24.7434 13.7276 24.1308 13.4417C18.9973 11.0481 14.7539 10.7947 12.7772 12.7717C11.0378 14.512 11.0131 18.0249 12.7079 22.4036C14.558 27.1705 18.1727 32.3948 22.8856 37.1086C24.0863 38.3096 25.3401 39.4577 26.6102 40.5198C27.1288 40.9528 27.1983 41.7245 26.7655 42.2473C26.5246 42.5373 26.1733 42.6887 25.8222 42.6887L25.8261 42.6809C25.5484 42.6809 25.2706 42.5867 25.0419 42.3948C23.7146 41.2878 22.4039 40.0902 21.1542 38.8362C16.2044 33.8854 12.3942 28.3628 10.4257 23.2854C8.33068 17.8814 8.55059 13.5312 11.0458 11.0354ZM29.7411 24.0393C30.1271 24.0394 30.4608 24.308 30.539 24.6897L31.0858 27.3538C31.2464 28.1391 31.863 28.7557 32.6483 28.9163L35.3124 29.4631C35.6897 29.5413 35.9627 29.875 35.9628 30.261C35.9628 30.6471 35.6941 30.9817 35.3124 31.0598L32.6483 31.6067C31.863 31.7672 31.2464 32.3829 31.0858 33.1682L30.539 35.8323C30.4609 36.2097 30.1272 36.4835 29.7411 36.4836C29.3549 36.4836 29.0204 36.2141 28.9423 35.8323L28.3954 33.1682C28.2348 32.383 27.619 31.7673 26.8339 31.6067L24.1698 31.0598C23.7923 30.9817 23.5184 30.6472 23.5184 30.261C23.5185 29.8749 23.788 29.5412 24.1698 29.4631L26.8339 28.9163C27.6192 28.7557 28.2349 28.1391 28.3954 27.3538L28.9423 24.6897C29.0204 24.3122 29.355 24.0393 29.7411 24.0393ZM21.1542 21.1497C31.7807 10.5171 43.992 6.0767 48.9501 11.0354C51.9559 14.0418 51.6452 19.6792 48.1044 26.509C47.794 27.1095 47.0553 27.3419 46.455 27.0315C45.8548 26.7211 45.6215 25.9784 45.9315 25.3821C48.8598 19.741 49.3544 14.9081 47.2225 12.7717C43.7879 9.33641 33.1894 12.5802 22.8895 22.8821C21.5623 24.2096 20.3001 25.6026 19.1444 27.0159C18.9035 27.3098 18.5483 27.4651 18.1972 27.4651H18.1933C17.9196 27.4651 17.6456 27.3747 17.4169 27.1868C16.8945 26.7578 16.8173 25.9859 17.246 25.4631C18.4548 23.9886 19.7698 22.5343 21.1542 21.1497Z" fill="url(#paint0_linear_3631_562)"/>
<defs>
<linearGradient id="paint0_linear_3631_562" x1="44.5238" y1="9.34542" x2="22.2647" y2="47.6857" gradientUnits="userSpaceOnUse">
<stop stop-color="#80C6FF"/>
<stop offset="1" stop-color="#FABFFF"/>
</linearGradient>
</defs>
</svg>
