<svg width="164" height="164" viewBox="0 0 164 164" fill="none" xmlns="http://www.w3.org/2000/svg">
<rect opacity="0.14" width="164" height="164" rx="82" fill="url(#paint0_linear_3306_5423)"/>
<rect opacity="0.24" x="15" y="15" width="134" height="134" rx="67" fill="url(#paint1_linear_3306_5423)"/>
<rect x="25" y="25" width="114" height="114" rx="57" fill="url(#paint2_linear_3306_5423)"/>
<path fill-rule="evenodd" clip-rule="evenodd" d="M86.443 62.0702C87.1219 61.2426 88.3439 61.1199 89.1715 61.7987C91.5059 63.7067 93.8085 65.7892 96.0006 67.9882C103.838 75.8269 109.871 84.5711 112.988 92.6103C116.305 101.167 115.955 108.055 112.005 112.007C109.832 114.18 106.799 115.254 103.113 115.254C98.7159 115.254 93.394 113.714 87.5162 110.668C86.5659 110.176 86.1978 109 86.6891 108.056C87.1805 107.105 88.3508 106.736 89.3014 107.227C98.2313 111.865 105.881 112.647 109.263 109.265C114.701 103.825 109.566 87.0479 93.2584 70.7304C91.1504 68.6285 88.9518 66.63 86.7145 64.7997C85.8869 64.1206 85.7641 62.898 86.443 62.0702ZM98.6647 87.3515C99.3501 86.5303 100.572 86.4209 101.4 87.1064C102.221 87.7918 102.331 89.0139 101.646 89.8417C99.8873 91.9501 97.992 94.0198 96.0133 95.9989C83.8436 108.171 70.3678 115.215 60.8688 115.215L60.8561 115.208C57.2156 115.208 54.1635 114.173 51.9908 112C47.6002 107.608 47.7037 99.4525 52.2819 89.6347C52.7346 88.6648 53.8856 88.2445 54.8619 88.6972C55.8382 89.15 56.252 90.3082 55.7994 91.2782C52.0103 99.4079 51.6092 106.127 54.7389 109.258C60.1771 114.697 76.9508 109.562 93.2653 93.2509C95.1599 91.3559 96.977 89.3694 98.6647 87.3515ZM51.9899 51.9745C56.3805 47.5765 64.5353 47.6865 74.3512 52.2655C75.3208 52.7184 75.7412 53.8692 75.2887 54.8456C74.836 55.8158 73.6786 56.2358 72.7086 55.7831C64.5806 51.9932 57.8618 51.5924 54.7321 54.7226C51.9774 57.4778 51.9382 63.0403 54.6217 69.9735C57.5509 77.5212 63.2739 85.7932 70.736 93.2567C72.637 95.1582 74.6224 96.9756 76.6334 98.6571C77.4546 99.3427 77.5649 100.566 76.8795 101.393C76.498 101.853 75.9414 102.092 75.3854 102.092L75.3922 102.079C74.9525 102.079 74.5121 101.93 74.15 101.626C72.0487 99.8733 69.9733 97.9784 67.9947 95.9931C60.1575 88.1543 54.1242 79.4093 51.0074 71.37C47.6905 62.8138 48.0394 55.9262 51.9899 51.9745ZM81.5895 72.5634C82.2009 72.5634 82.7304 72.9892 82.8541 73.5937L83.7194 77.8124C83.9736 79.0558 84.9495 80.0309 86.193 80.2851L90.4108 81.1513C91.0084 81.2749 91.4419 81.8036 91.442 82.4149C91.442 83.0264 91.0153 83.5559 90.4108 83.6796L86.193 84.5448C84.9495 84.799 83.9736 85.775 83.7194 87.0185L82.8541 91.2362C82.7305 91.8339 82.2009 92.2675 81.5895 92.2675C80.9781 92.2674 80.4494 91.8407 80.3258 91.2362L79.4596 87.0185C79.2054 85.775 78.2303 84.7991 76.9869 84.5448L72.7682 83.6796C72.1705 83.5559 71.7379 83.0263 71.7379 82.4149C71.738 81.8037 72.1638 81.275 72.7682 81.1513L76.9869 80.2851C78.2302 80.0308 79.2053 79.0557 79.4596 77.8124L80.3258 73.5937C80.4496 72.9962 80.9782 72.5635 81.5895 72.5634ZM67.9947 67.9882C84.8201 51.1531 104.154 44.123 112.005 51.9745C116.764 56.7346 116.273 65.6599 110.667 76.4735C110.175 77.4243 109.004 77.7932 108.053 77.3017C107.103 76.81 106.735 75.6325 107.226 74.6884C111.862 65.7568 112.645 58.1061 109.269 54.7235C103.831 49.2843 87.0509 54.4191 70.7428 70.7304C68.6413 72.8323 66.643 75.0376 64.8131 77.2753C64.4316 77.741 63.8692 77.9872 63.3131 77.9872H63.3063C62.8731 77.9871 62.4398 77.8452 62.0778 77.5478C61.2501 76.8687 61.1275 75.6461 61.8063 74.8183C63.7203 72.4835 65.8027 70.1807 67.9947 67.9882Z" fill="#002A29"/>
<defs>
<linearGradient id="paint0_linear_3306_5423" x1="133.31" y1="9.02644" x2="15.4014" y2="144.527" gradientUnits="userSpaceOnUse">
<stop stop-color="#92BDFF"/>
<stop offset="1" stop-color="#E2B8FF"/>
</linearGradient>
<linearGradient id="paint1_linear_3306_5423" x1="123.924" y1="22.3753" x2="27.5841" y2="133.089" gradientUnits="userSpaceOnUse">
<stop stop-color="#92BDFF"/>
<stop offset="1" stop-color="#E2B8FF"/>
</linearGradient>
<linearGradient id="paint2_linear_3306_5423" x1="117.666" y1="31.2745" x2="35.7059" y2="125.464" gradientUnits="userSpaceOnUse">
<stop stop-color="#96C2FF"/>
<stop offset="1" stop-color="#E2B8FF"/>
</linearGradient>
</defs>
</svg>
