<svg width="40" height="40" viewBox="0 0 40 40" fill="none" xmlns="http://www.w3.org/2000/svg">
<rect width="40" height="40" rx="8" fill="#0F1012"/>
<path d="M17.1102 19.1797C16.6862 19.1797 16.3357 19.025 16.0588 18.7157C15.7819 18.4064 15.6734 18.0397 15.7332 17.6157L16.1408 14.426C16.2673 13.484 16.6997 12.7075 17.4382 12.0964C18.1766 11.4852 19.0305 11.1797 19.9998 11.1797C20.9692 11.1797 21.8231 11.4852 22.5615 12.0964C23.2999 12.7075 23.7324 13.484 23.8588 14.426L24.2665 17.6157C24.3263 18.0397 24.2177 18.4064 23.9408 18.7157C23.6639 19.025 23.3135 19.1797 22.8895 19.1797H17.1102ZM17.0332 17.8464H22.9665L22.5332 14.6464C22.4443 14.0241 22.1609 13.513 21.6832 13.113C21.2054 12.713 20.6443 12.513 19.9998 12.513C19.3554 12.513 18.7943 12.713 18.3165 13.113C17.8387 13.513 17.5554 14.0241 17.4665 14.6464L17.0332 17.8464ZM10.6665 27.4364V26.626C10.6665 26.0756 10.8267 25.5606 11.1472 25.081C11.4678 24.6017 11.8991 24.2295 12.4408 23.9644C13.6991 23.361 14.9581 22.9085 16.2178 22.6067C17.4776 22.3051 18.7383 22.1544 19.9998 22.1544C21.2614 22.1544 22.5221 22.3051 23.7818 22.6067C25.0416 22.9085 26.3006 23.361 27.5588 23.9644C28.1006 24.2295 28.5318 24.6017 28.8525 25.081C29.1729 25.5606 29.3332 26.0756 29.3332 26.626V27.4364C29.3332 27.8277 29.2003 28.1562 28.9345 28.422C28.6687 28.688 28.3401 28.821 27.9485 28.821H12.0512C11.6596 28.821 11.3309 28.688 11.0652 28.422C10.7994 28.1562 10.6665 27.8277 10.6665 27.4364ZM11.9998 27.4877H27.9998V26.626C27.9998 26.3302 27.9045 26.0525 27.7138 25.7927C27.5234 25.5329 27.2597 25.3132 26.9228 25.1337C25.8255 24.6021 24.6956 24.1949 23.5332 23.912C22.3707 23.6291 21.1929 23.4877 19.9998 23.4877C18.8067 23.4877 17.6289 23.6291 16.4665 23.912C15.3041 24.1949 14.1742 24.6021 13.0768 25.1337C12.7399 25.3132 12.4763 25.5329 12.2858 25.7927C12.0952 26.0525 11.9998 26.3302 11.9998 26.626V27.4877Z" fill="#A2C4FF"/>
</svg>
