<svg width="60" height="60" viewBox="0 0 60 60" fill="none" xmlns="http://www.w3.org/2000/svg">
<path d="M12.1888 27.5717C13.5754 18.2343 22.2241 11.7952 31.5062 13.1899C33.3197 13.4624 35.0264 14.0146 36.5863 14.7973C37.1976 15.1043 37.4456 15.852 37.1409 16.4672C36.8358 17.0827 36.0916 17.3338 35.4798 17.0268C34.15 16.3596 32.6939 15.8872 31.1409 15.6537C23.2111 14.4621 15.8226 19.9628 14.638 27.9399C13.4535 35.9169 18.9211 43.3488 26.8509 44.5405C30.8444 45.1406 34.6984 44.0453 37.6956 41.7885C38.243 41.3764 39.0193 41.4889 39.429 42.0395C39.8384 42.59 39.7262 43.3706 39.179 43.7826C35.6741 46.4216 31.1585 47.7067 26.4847 47.0043C17.2026 45.6093 10.8022 36.9091 12.1888 27.5717ZM44.7611 31.2065C45.4372 31.3081 45.904 31.9423 45.8031 32.6225C45.6735 33.4947 45.4803 34.3427 45.2288 35.1615C44.9105 36.1982 44.498 37.188 44.0042 38.1225C43.5979 38.8915 43.1366 39.6237 42.6253 40.3129C42.2165 40.8637 41.4407 40.9766 40.8929 40.5658C40.345 40.1545 40.2321 39.3739 40.6409 38.8227C41.0776 38.2341 41.472 37.6097 41.8187 36.9535C42.2399 36.1563 42.5908 35.3113 42.8626 34.4262C43.0773 33.727 43.2428 33.0018 43.3538 32.2543C43.4549 31.5742 44.0849 31.1049 44.7611 31.2065ZM45.4935 14.4926C46.3084 13.7496 47.4679 14.8616 46.8021 15.7485L29.3333 38.0444C28.9841 38.5142 28.2999 38.5241 27.932 38.0639L19.4525 26.4721C18.8193 25.6763 19.7318 24.5696 20.598 25.0873L28.0999 29.5737C28.4351 29.7701 28.8591 29.7277 29.1478 29.4643L45.4935 14.4926ZM43.9964 25.0824C44.66 24.9171 45.332 25.324 45.4964 25.9916C45.6333 26.5475 45.7427 27.113 45.8236 27.686C45.9197 28.3669 45.4487 28.9984 44.7718 29.0951C44.0952 29.1917 43.4689 28.718 43.3724 28.0375C43.3034 27.5485 43.2099 27.0649 43.0931 26.5903C42.9288 25.9228 43.333 25.2479 43.9964 25.0824Z" fill="url(#paint0_linear_3631_584)"/>
<defs>
<linearGradient id="paint0_linear_3631_584" x1="40.4504" y1="14.882" x2="15.7837" y2="43.5547" gradientUnits="userSpaceOnUse">
<stop stop-color="#80C6FF"/>
<stop offset="1" stop-color="#FABFFF"/>
</linearGradient>
</defs>
</svg>
