<svg width="60" height="60" viewBox="0 0 60 60" fill="none" xmlns="http://www.w3.org/2000/svg">
<path d="M21.8709 51.2383C22.6333 51.2383 23.2515 51.8567 23.2517 52.6191C23.2517 53.3818 22.6335 53.9999 21.8709 54C21.1082 54 20.49 53.3818 20.49 52.6191C20.4903 51.8567 21.1084 51.2383 21.8709 51.2383ZM25.8123 47.918C26.5749 47.918 27.1931 48.5362 27.1931 49.2988C27.1931 50.0615 26.5749 50.6797 25.8123 50.6797C25.0497 50.6796 24.4314 50.0614 24.4314 49.2988C24.4315 48.5363 25.0498 47.9181 25.8123 47.918ZM21.6687 46.0771C22.4313 46.0773 23.0496 46.6954 23.0496 47.458C23.0494 48.2205 22.4312 48.8387 21.6687 48.8389C20.9062 48.8389 20.288 48.2205 20.2879 47.458C20.2879 46.6954 20.9061 46.0771 21.6687 46.0771ZM33.4012 14.626C33.9829 13.9329 35.1099 14.51 34.8758 15.3809L32.1834 25.4688C32.0408 26.0021 32.4467 26.5244 33.0027 26.5244H39.782V26.5205C40.4991 26.5205 40.8943 27.3515 40.4334 27.8994L26.2303 44.8496C25.6485 45.5425 24.5217 44.9655 24.7556 44.0947L27.449 34.0068C27.5917 33.4734 27.1848 32.9512 26.6287 32.9512H19.8494C19.1324 32.9512 18.7373 32.1202 19.198 31.5723L33.4012 14.626ZM37.7791 10.6338C38.5416 10.634 39.1599 11.2521 39.1599 12.0146C39.1597 12.777 38.5414 13.3953 37.7791 13.3955C37.0166 13.3955 36.3985 12.7771 36.3982 12.0146C36.3982 11.252 37.0164 10.6338 37.7791 10.6338ZM33.6365 8.79297C34.399 8.79318 35.0174 9.4113 35.0174 10.1738C35.0173 10.9363 34.3989 11.5545 33.6365 11.5547C32.8739 11.5547 32.2557 10.9364 32.2556 10.1738C32.2556 9.41117 32.8738 8.79297 33.6365 8.79297ZM37.5096 6C38.272 6.00019 38.8904 6.61832 38.8904 7.38086C38.8902 8.1432 38.2719 8.76153 37.5096 8.76172C36.747 8.76172 36.1289 8.14332 36.1287 7.38086C36.1287 6.6182 36.7469 6 37.5096 6Z" fill="url(#paint0_linear_3631_571)"/>
<defs>
<linearGradient id="paint0_linear_3631_571" x1="36.5835" y1="8.64189" x2="41" y2="39" gradientUnits="userSpaceOnUse">
<stop stop-color="#80C6FF"/>
<stop offset="1" stop-color="#FABFFF"/>
</linearGradient>
</defs>
</svg>
