<svg width="40" height="40" viewBox="0 0 40 40" fill="none" xmlns="http://www.w3.org/2000/svg">
<rect width="40" height="40" rx="8" fill="#0F1012"/>
<path d="M17.9625 21.7313C18.0901 21.6036 18.1538 21.4452 18.1538 21.2563V17.4873C18.1538 17.2984 18.0898 17.1401 17.9618 17.0123C17.8338 16.8846 17.6753 16.8207 17.4862 16.8207C17.2971 16.8207 17.1388 16.8846 17.0115 17.0123C16.8842 17.1401 16.8205 17.2984 16.8205 17.4873V21.2563C16.8205 21.4452 16.8844 21.6036 17.0122 21.7313C17.1402 21.8591 17.2987 21.923 17.4878 21.923C17.6769 21.923 17.8352 21.8591 17.9625 21.7313ZM11.7692 20.436C10.8494 19.976 10.1024 19.3182 9.52817 18.4627C8.95373 17.6071 8.6665 16.664 8.6665 15.6333C8.6665 14.2573 9.14895 13.0856 10.1138 12.118C11.0789 11.1504 12.2495 10.6667 13.6255 10.6667C13.8879 10.6667 14.1558 10.6889 14.4292 10.7333C14.7027 10.7778 14.9707 10.8333 15.2332 10.9L15.4638 10.9513L15.5922 10.746C16.0793 9.93756 16.7032 9.27778 17.4638 8.76667C18.2245 8.25556 19.0698 8 19.9998 8C20.9298 8 21.7752 8.25556 22.5358 8.76667C23.2965 9.27778 23.9289 9.93756 24.4332 10.746L24.5615 10.9513L24.7665 10.9C25.0205 10.8333 25.2746 10.7778 25.5288 10.7333C25.7828 10.6889 26.0475 10.6667 26.3228 10.6667C27.7159 10.6667 28.8993 11.1501 29.8728 12.117C30.8464 13.0839 31.3332 14.2646 31.3332 15.659C31.3332 16.6897 31.0503 17.6286 30.4845 18.4757C29.9187 19.3226 29.1674 19.9741 28.2305 20.4303V26.9743H11.7692V20.436ZM23.0138 21.7313C23.1412 21.6036 23.2048 21.4452 23.2048 21.2563V17.4873C23.2048 17.2984 23.1409 17.1401 23.0132 17.0123C22.8852 16.8846 22.7266 16.8207 22.5375 16.8207C22.3484 16.8207 22.1901 16.8846 22.0625 17.0123C21.9352 17.1401 21.8715 17.2984 21.8715 17.4873V21.2563C21.8715 21.4452 21.9355 21.6036 22.0635 21.7313C22.1915 21.8591 22.3501 21.923 22.5392 21.923C22.7283 21.923 22.8865 21.8591 23.0138 21.7313ZM13.1025 25.641H26.8972V19.5717L27.9792 19.0437C28.6083 18.7377 29.1066 18.2851 29.4742 17.686C29.8417 17.0869 30.0255 16.4286 30.0255 15.711C30.0255 14.6719 29.6575 13.7937 28.9215 13.0763C28.1857 12.3588 27.3024 12 26.2715 12C26.0442 12 25.8263 12.018 25.6178 12.054C25.4092 12.0898 25.2023 12.141 24.9972 12.2077L23.9435 12.5127L23.2948 11.4207C22.9324 10.8069 22.4669 10.3056 21.8985 9.91667C21.3301 9.52778 20.7014 9.33333 20.0125 9.33333C19.3236 9.33333 18.6951 9.52778 18.1268 9.91667C17.5584 10.3056 17.0929 10.8069 16.7305 11.4207L16.0818 12.5127L14.9948 12.2077C14.7897 12.1461 14.5816 12.0961 14.3705 12.0577C14.1594 12.0192 13.9427 12 13.7205 12C12.6896 12 11.8118 12.3568 11.0872 13.0703C10.3623 13.7841 9.99984 14.6577 9.99984 15.691C9.99984 16.4048 10.1825 17.0596 10.5478 17.6553C10.9132 18.2511 11.4125 18.7139 12.0458 19.0437L13.1025 19.5717V25.641ZM11.7692 26.9743H13.1025V29.846C13.1025 30.0853 13.1794 30.282 13.3332 30.436C13.4869 30.5898 13.6835 30.6667 13.9228 30.6667H26.0768C26.3162 30.6667 26.5127 30.5898 26.6665 30.436C26.8203 30.282 26.8972 30.0853 26.8972 29.846V26.9743H28.2305V29.846C28.2305 30.4384 28.0196 30.9456 27.5978 31.3673C27.1761 31.7891 26.6691 32 26.0768 32H13.9228C13.3306 32 12.8236 31.7891 12.4018 31.3673C11.9801 30.9456 11.7692 30.4384 11.7692 29.846V26.9743Z" fill="#A2C4FF"/>
</svg>
