<svg width="40" height="40" viewBox="0 0 40 40" fill="none" xmlns="http://www.w3.org/2000/svg">
<rect width="40" height="40" rx="8" fill="#0F1012"/>
<path d="M8.6665 31.2827V26.052C8.6665 25.6604 8.79939 25.3318 9.06517 25.066C9.33095 24.8002 9.65961 24.6673 10.0512 24.6673H12.6665V21.488C12.6665 20.8913 12.8763 20.3831 13.2958 19.9633C13.7156 19.5438 14.2238 19.334 14.8205 19.334H19.3332V15.334H16.7178C16.3263 15.334 15.9976 15.2011 15.7318 14.9353C15.4661 14.6695 15.3332 14.3409 15.3332 13.9493V8.71865C15.3332 8.32709 15.4661 7.99843 15.7318 7.73265C15.9976 7.46687 16.3263 7.33398 16.7178 7.33398H23.2818C23.6734 7.33398 24.0021 7.46687 24.2678 7.73265C24.5336 7.99843 24.6665 8.32709 24.6665 8.71865V13.9493C24.6665 14.3409 24.5336 14.6695 24.2678 14.9353C24.0021 15.2011 23.6734 15.334 23.2818 15.334H20.6665V19.334H25.1792C25.7758 19.334 26.2841 19.5438 26.7038 19.9633C27.1234 20.3831 27.3332 20.8913 27.3332 21.488V24.6673H29.9485C30.3401 24.6673 30.6687 24.8002 30.9345 25.066C31.2003 25.3318 31.3332 25.6604 31.3332 26.052V31.2827C31.3332 31.6742 31.2003 32.0029 30.9345 32.2687C30.6687 32.5344 30.3401 32.6673 29.9485 32.6673H23.3845C22.9929 32.6673 22.6643 32.5344 22.3985 32.2687C22.1327 32.0029 21.9998 31.6742 21.9998 31.2827V26.052C21.9998 25.6604 22.1327 25.3318 22.3985 25.066C22.6643 24.8002 22.9929 24.6673 23.3845 24.6673H25.9998V21.488C25.9998 21.2487 25.9229 21.052 25.7692 20.898C25.6152 20.7442 25.4185 20.6673 25.1792 20.6673H14.8205C14.5812 20.6673 14.3845 20.7442 14.2305 20.898C14.0767 21.052 13.9998 21.2487 13.9998 21.488V24.6673H16.6152C17.0067 24.6673 17.3354 24.8002 17.6012 25.066C17.8669 25.3318 17.9998 25.6604 17.9998 26.052V31.2827C17.9998 31.6742 17.8669 32.0029 17.6012 32.2687C17.3354 32.5344 17.0067 32.6673 16.6152 32.6673H10.0512C9.65961 32.6673 9.33095 32.5344 9.06517 32.2687C8.79939 32.0029 8.6665 31.6742 8.6665 31.2827ZM16.6665 14.0007H23.3332V8.66732H16.6665V14.0007ZM9.99984 31.334H16.6665V26.0007H9.99984V31.334ZM23.3332 31.334H29.9998V26.0007H23.3332V31.334Z" fill="#A2C4FF"/>
</svg>
