<svg width="40" height="40" viewBox="0 0 40 40" fill="none" xmlns="http://www.w3.org/2000/svg">
<rect width="40" height="40" rx="8" fill="#0F1012"/>
<path d="M8.97428 27.1804C8.78451 27.1804 8.62595 27.1166 8.49862 26.9891C8.37128 26.8617 8.30762 26.7032 8.30762 26.5134C8.30762 26.3238 8.37128 26.1654 8.49862 26.0381C8.62595 25.9105 8.78451 25.8467 8.97428 25.8467H31.0256C31.2154 25.8467 31.374 25.9105 31.5013 26.0381C31.6286 26.1654 31.6923 26.3238 31.6923 26.5134C31.6923 26.7032 31.6286 26.8617 31.5013 26.9891C31.374 27.1166 31.2154 27.1804 31.0256 27.1804H8.97428ZM9.33328 24.0007V23.6931C9.33328 21.0708 10.2268 18.8033 12.014 16.8904C13.8013 14.9777 16.0188 13.8351 18.6666 13.4624V12.8724C18.6666 12.5153 18.7995 12.2038 19.0653 11.9381C19.3311 11.6721 19.6426 11.5391 20 11.5391C20.3573 11.5391 20.6688 11.6721 20.9346 11.9381C21.2004 12.2038 21.3333 12.5153 21.3333 12.8724V13.4624C23.9862 13.8351 26.205 14.9777 27.9896 16.8904C29.7743 18.8033 30.6666 21.0708 30.6666 23.6931V24.0007H9.33328ZM10.759 22.6674H29.241C29.0325 20.493 28.0334 18.6246 26.2436 17.0624C24.4538 15.4999 22.3726 14.7187 20 14.7187C17.6273 14.7187 15.5474 15.4999 13.7603 17.0624C11.973 18.6246 10.9725 20.493 10.759 22.6674Z" fill="#A2C4FF"/>
</svg>
