<svg width="298" height="92" viewBox="0 0 298 92" fill="none" xmlns="http://www.w3.org/2000/svg">
<path d="M3.50098 88L0.651855 77.4312H2.36572L4.30664 85.6416H4.40186L6.60645 77.4312H8.13721L10.3564 85.6416H10.4517L12.3853 77.4312H14.0918L11.2427 88H9.68994L7.41943 80.1045H7.32422L5.05371 88H3.50098ZM18.4717 88.1538C17.6953 88.1538 17.0239 87.9878 16.4575 87.6558C15.896 87.3237 15.4639 86.8501 15.1611 86.2349C14.8584 85.6147 14.707 84.8799 14.707 84.0303V84.0156C14.707 83.1611 14.8584 82.4263 15.1611 81.811C15.4688 81.1958 15.9033 80.7222 16.4648 80.3901C17.0312 80.0581 17.7002 79.8921 18.4717 79.8921C19.248 79.8921 19.917 80.0581 20.4785 80.3901C21.04 80.7173 21.4722 81.1909 21.7749 81.811C22.0825 82.4263 22.2363 83.1611 22.2363 84.0156V84.0303C22.2363 84.8799 22.0825 85.6147 21.7749 86.2349C21.4722 86.8501 21.04 87.3237 20.4785 87.6558C19.9219 87.9878 19.2529 88.1538 18.4717 88.1538ZM18.4717 86.8208C18.9258 86.8208 19.3115 86.7109 19.6289 86.4912C19.9463 86.2666 20.188 85.9468 20.354 85.5317C20.52 85.1167 20.603 84.6162 20.603 84.0303V84.0156C20.603 83.4248 20.52 82.9219 20.354 82.5068C20.188 82.0918 19.9463 81.7744 19.6289 81.5547C19.3115 81.3301 18.9258 81.2178 18.4717 81.2178C18.0176 81.2178 17.6318 81.3301 17.3145 81.5547C16.9971 81.7744 16.7529 82.0918 16.582 82.5068C16.416 82.9219 16.333 83.4248 16.333 84.0156V84.0303C16.333 84.6162 16.416 85.1167 16.582 85.5317C16.7529 85.9468 16.9971 86.2666 17.3145 86.4912C17.6318 86.7109 18.0176 86.8208 18.4717 86.8208ZM24.126 88V80.0459H25.7153V81.2471H25.8398C25.9814 80.8223 26.2305 80.4927 26.5869 80.2583C26.9482 80.0239 27.3926 79.9067 27.9199 79.9067C28.0518 79.9067 28.1812 79.9141 28.3081 79.9287C28.4351 79.9434 28.5376 79.9604 28.6157 79.98V81.4448C28.4741 81.4155 28.3325 81.3936 28.1909 81.3789C28.0542 81.3643 27.9102 81.3569 27.7588 81.3569C27.3535 81.3569 26.9971 81.4351 26.6895 81.5913C26.3867 81.7476 26.1475 81.9673 25.9717 82.2505C25.8008 82.5288 25.7153 82.8608 25.7153 83.2466V88H24.126ZM30.2197 88V76.9258H31.8091V88H30.2197ZM37.0752 88.1318C36.4111 88.1318 35.8301 87.9658 35.332 87.6338C34.8389 87.2969 34.4556 86.8208 34.1821 86.2056C33.9136 85.5903 33.7793 84.8652 33.7793 84.0303V84.0156C33.7793 83.1758 33.9136 82.4482 34.1821 81.833C34.4507 81.2178 34.8315 80.7441 35.3247 80.4121C35.8179 80.0752 36.4014 79.9067 37.0752 79.9067C37.4414 79.9067 37.7832 79.9653 38.1006 80.0825C38.418 80.1948 38.6987 80.356 38.9429 80.5659C39.187 80.771 39.3799 81.0176 39.5215 81.3057H39.6387V76.9258H41.2354V88H39.6387V86.7476H39.5215C39.3652 87.0356 39.1675 87.2847 38.9282 87.4946C38.689 87.6997 38.4131 87.8584 38.1006 87.9707C37.7881 88.0781 37.4463 88.1318 37.0752 88.1318ZM37.5293 86.7695C37.9688 86.7695 38.3496 86.6597 38.6719 86.4399C38.9941 86.2202 39.2407 85.9053 39.4116 85.4951C39.5825 85.0801 39.668 84.5918 39.668 84.0303V84.0156C39.668 83.4492 39.5801 82.9609 39.4043 82.5508C39.2334 82.1406 38.9868 81.8257 38.6646 81.606C38.3472 81.3813 37.9688 81.269 37.5293 81.269C37.0898 81.269 36.709 81.3813 36.3867 81.606C36.0693 81.8257 35.8252 82.1406 35.6543 82.5508C35.4883 82.9561 35.4053 83.4443 35.4053 84.0156V84.0303C35.4053 84.5967 35.4883 85.085 35.6543 85.4951C35.8252 85.9053 36.0693 86.2202 36.3867 86.4399C36.709 86.6597 37.0898 86.7695 37.5293 86.7695ZM43.645 81.7378L44.2896 77.4312H45.9888L44.7656 81.7378H43.645ZM50.3394 88.1538C49.6997 88.1538 49.1431 88.061 48.6694 87.8755C48.1958 87.6851 47.8198 87.4238 47.5415 87.0918C47.2632 86.7549 47.0996 86.3643 47.0508 85.9199V85.9053H48.6475V85.9199C48.75 86.2178 48.9453 86.4595 49.2334 86.645C49.5215 86.8306 49.9023 86.9233 50.376 86.9233C50.7031 86.9233 50.9888 86.877 51.2329 86.7842C51.4819 86.6914 51.6772 86.562 51.8188 86.396C51.9604 86.23 52.0312 86.0396 52.0312 85.8247V85.8101C52.0312 85.561 51.9312 85.3511 51.731 85.1802C51.5308 85.0093 51.2012 84.8701 50.7422 84.7627L49.4678 84.4697C48.9697 84.3574 48.5571 84.2036 48.23 84.0083C47.9028 83.813 47.6611 83.5737 47.5049 83.2905C47.3486 83.0024 47.2705 82.6655 47.2705 82.2798V82.2725C47.2705 81.8086 47.4023 81.3984 47.666 81.042C47.9297 80.6807 48.2935 80.3999 48.7573 80.1997C49.2261 79.9946 49.7607 79.8921 50.3613 79.8921C50.9668 79.8921 51.4941 79.9873 51.9434 80.1777C52.3975 80.3633 52.7563 80.6221 53.02 80.9541C53.2837 81.2812 53.4399 81.6621 53.4888 82.0967V82.104H51.9653V82.0894C51.8921 81.811 51.7163 81.5791 51.438 81.3936C51.1646 81.208 50.8032 81.1152 50.354 81.1152C50.0659 81.1152 49.8096 81.1616 49.585 81.2544C49.3604 81.3423 49.1821 81.4668 49.0503 81.6279C48.9233 81.7842 48.8599 81.9697 48.8599 82.1846V82.1992C48.8599 82.3652 48.9014 82.5117 48.9844 82.6387C49.0723 82.7607 49.209 82.8706 49.3945 82.9683C49.5801 83.061 49.8193 83.144 50.1123 83.2173L51.3794 83.5029C52.1411 83.6836 52.7075 83.9448 53.0786 84.2866C53.4546 84.6284 53.6426 85.0874 53.6426 85.6636V85.6782C53.6426 86.1665 53.4985 86.5986 53.2104 86.9746C52.9224 87.3457 52.5293 87.6362 52.0312 87.8462C51.5381 88.0513 50.9741 88.1538 50.3394 88.1538ZM60.1831 88V81.2983H58.8721V80.0459H60.1831V79.2109C60.1831 78.6787 60.271 78.2393 60.4468 77.8926C60.6274 77.541 60.9009 77.2798 61.2671 77.1089C61.6333 76.938 62.0947 76.8525 62.6514 76.8525C62.8271 76.8525 62.9907 76.8599 63.1421 76.8745C63.2983 76.8843 63.4473 76.9014 63.5889 76.9258V78.0977C63.5156 78.083 63.4253 78.0732 63.3179 78.0684C63.2153 78.0586 63.103 78.0537 62.981 78.0537C62.5415 78.0537 62.2266 78.1587 62.0361 78.3687C61.8506 78.5786 61.7578 78.8838 61.7578 79.2842V80.0459H63.5156V81.2983H61.7725V88H60.1831ZM65.3247 88V80.0459H66.9214V88H65.3247ZM66.1304 78.625C65.8569 78.625 65.6226 78.5273 65.4272 78.332C65.2319 78.1367 65.1343 77.9023 65.1343 77.6289C65.1343 77.3555 65.2319 77.1235 65.4272 76.9331C65.6226 76.7378 65.8569 76.6401 66.1304 76.6401C66.4038 76.6401 66.6382 76.7378 66.8335 76.9331C67.0288 77.1235 67.1265 77.3555 67.1265 77.6289C67.1265 77.9023 67.0288 78.1367 66.8335 78.332C66.6382 78.5273 66.4038 78.625 66.1304 78.625ZM69.2285 88V80.0459H70.8179V81.2471H70.9424C71.084 80.8223 71.333 80.4927 71.6895 80.2583C72.0508 80.0239 72.4951 79.9067 73.0225 79.9067C73.1543 79.9067 73.2837 79.9141 73.4106 79.9287C73.5376 79.9434 73.6401 79.9604 73.7183 79.98V81.4448C73.5767 81.4155 73.4351 81.3936 73.2935 81.3789C73.1567 81.3643 73.0127 81.3569 72.8613 81.3569C72.4561 81.3569 72.0996 81.4351 71.792 81.5913C71.4893 81.7476 71.25 81.9673 71.0742 82.2505C70.9033 82.5288 70.8179 82.8608 70.8179 83.2466V88H69.2285ZM77.981 88.1538C77.3413 88.1538 76.7847 88.061 76.311 87.8755C75.8374 87.6851 75.4614 87.4238 75.1831 87.0918C74.9048 86.7549 74.7412 86.3643 74.6924 85.9199V85.9053H76.2891V85.9199C76.3916 86.2178 76.5869 86.4595 76.875 86.645C77.1631 86.8306 77.5439 86.9233 78.0176 86.9233C78.3447 86.9233 78.6304 86.877 78.8745 86.7842C79.1235 86.6914 79.3188 86.562 79.4604 86.396C79.6021 86.23 79.6729 86.0396 79.6729 85.8247V85.8101C79.6729 85.561 79.5728 85.3511 79.3726 85.1802C79.1724 85.0093 78.8428 84.8701 78.3838 84.7627L77.1094 84.4697C76.6113 84.3574 76.1987 84.2036 75.8716 84.0083C75.5444 83.813 75.3027 83.5737 75.1465 83.2905C74.9902 83.0024 74.9121 82.6655 74.9121 82.2798V82.2725C74.9121 81.8086 75.0439 81.3984 75.3076 81.042C75.5713 80.6807 75.9351 80.3999 76.3989 80.1997C76.8677 79.9946 77.4023 79.8921 78.0029 79.8921C78.6084 79.8921 79.1357 79.9873 79.585 80.1777C80.0391 80.3633 80.3979 80.6221 80.6616 80.9541C80.9253 81.2812 81.0815 81.6621 81.1304 82.0967V82.104H79.6069V82.0894C79.5337 81.811 79.3579 81.5791 79.0796 81.3936C78.8062 81.208 78.4448 81.1152 77.9956 81.1152C77.7075 81.1152 77.4512 81.1616 77.2266 81.2544C77.002 81.3423 76.8237 81.4668 76.6919 81.6279C76.5649 81.7842 76.5015 81.9697 76.5015 82.1846V82.1992C76.5015 82.3652 76.543 82.5117 76.626 82.6387C76.7139 82.7607 76.8506 82.8706 77.0361 82.9683C77.2217 83.061 77.4609 83.144 77.7539 83.2173L79.021 83.5029C79.7827 83.6836 80.3491 83.9448 80.7202 84.2866C81.0962 84.6284 81.2842 85.0874 81.2842 85.6636V85.6782C81.2842 86.1665 81.1401 86.5986 80.8521 86.9746C80.564 87.3457 80.1709 87.6362 79.6729 87.8462C79.1797 88.0513 78.6157 88.1538 77.981 88.1538ZM86.1182 88.0513C85.249 88.0513 84.6191 87.8853 84.2285 87.5532C83.8428 87.2163 83.6499 86.667 83.6499 85.9053V81.2983H82.4048V80.0459H83.6499V78.0391H85.2759V80.0459H86.9824V81.2983H85.2759V85.5171C85.2759 85.9468 85.3613 86.2568 85.5322 86.4473C85.7031 86.6328 85.9863 86.7256 86.3818 86.7256C86.499 86.7256 86.5991 86.7231 86.6821 86.7183C86.77 86.7134 86.8701 86.7061 86.9824 86.6963V87.9707C86.8555 87.9902 86.7188 88.0073 86.5723 88.022C86.4258 88.0415 86.2744 88.0513 86.1182 88.0513ZM93.1128 88V77.4312H99.7119V78.8521H94.7534V82.1919H99.2944V83.5762H94.7534V88H93.1128ZM103.389 88.1318C102.886 88.1318 102.434 88.0366 102.034 87.8462C101.638 87.6509 101.326 87.375 101.096 87.0186C100.867 86.6621 100.752 86.2446 100.752 85.7661V85.7515C100.752 85.2729 100.867 84.8652 101.096 84.5283C101.331 84.1914 101.667 83.9277 102.107 83.7373C102.551 83.542 103.088 83.4248 103.718 83.3857L106.655 83.21V84.3306L103.938 84.5063C103.391 84.5405 102.988 84.6577 102.729 84.8579C102.471 85.0532 102.341 85.3291 102.341 85.6855V85.7002C102.341 86.0615 102.48 86.3472 102.759 86.5571C103.037 86.7622 103.389 86.8647 103.813 86.8647C104.209 86.8647 104.561 86.7866 104.868 86.6304C105.181 86.4692 105.425 86.2544 105.601 85.9858C105.776 85.7124 105.864 85.4048 105.864 85.063V82.5581C105.864 82.1187 105.728 81.7842 105.454 81.5547C105.186 81.3203 104.785 81.2031 104.253 81.2031C103.809 81.2031 103.445 81.2812 103.162 81.4375C102.883 81.5938 102.698 81.8135 102.605 82.0967L102.59 82.1187H101.06L101.067 82.0674C101.13 81.6279 101.304 81.2471 101.587 80.9248C101.875 80.5977 102.251 80.3438 102.715 80.1631C103.184 79.9824 103.718 79.8921 104.319 79.8921C104.988 79.8921 105.554 79.9995 106.018 80.2144C106.487 80.4243 106.841 80.7295 107.08 81.1299C107.324 81.5254 107.446 82.0015 107.446 82.5581V88H105.864V86.8721H105.747C105.591 87.1406 105.396 87.3701 105.161 87.5605C104.927 87.7461 104.661 87.8877 104.363 87.9854C104.065 88.083 103.74 88.1318 103.389 88.1318ZM112.581 88.1538C111.941 88.1538 111.384 88.061 110.911 87.8755C110.437 87.6851 110.061 87.4238 109.783 87.0918C109.504 86.7549 109.341 86.3643 109.292 85.9199V85.9053H110.889V85.9199C110.991 86.2178 111.187 86.4595 111.475 86.645C111.763 86.8306 112.144 86.9233 112.617 86.9233C112.944 86.9233 113.23 86.877 113.474 86.7842C113.723 86.6914 113.918 86.562 114.06 86.396C114.202 86.23 114.272 86.0396 114.272 85.8247V85.8101C114.272 85.561 114.172 85.3511 113.972 85.1802C113.772 85.0093 113.442 84.8701 112.983 84.7627L111.709 84.4697C111.211 84.3574 110.798 84.2036 110.471 84.0083C110.144 83.813 109.902 83.5737 109.746 83.2905C109.59 83.0024 109.512 82.6655 109.512 82.2798V82.2725C109.512 81.8086 109.644 81.3984 109.907 81.042C110.171 80.6807 110.535 80.3999 110.999 80.1997C111.467 79.9946 112.002 79.8921 112.603 79.8921C113.208 79.8921 113.735 79.9873 114.185 80.1777C114.639 80.3633 114.998 80.6221 115.261 80.9541C115.525 81.2812 115.681 81.6621 115.73 82.0967V82.104H114.207V82.0894C114.133 81.811 113.958 81.5791 113.679 81.3936C113.406 81.208 113.044 81.1152 112.595 81.1152C112.307 81.1152 112.051 81.1616 111.826 81.2544C111.602 81.3423 111.423 81.4668 111.292 81.6279C111.165 81.7842 111.101 81.9697 111.101 82.1846V82.1992C111.101 82.3652 111.143 82.5117 111.226 82.6387C111.313 82.7607 111.45 82.8706 111.636 82.9683C111.821 83.061 112.061 83.144 112.354 83.2173L113.621 83.5029C114.382 83.6836 114.949 83.9448 115.32 84.2866C115.696 84.6284 115.884 85.0874 115.884 85.6636V85.6782C115.884 86.1665 115.74 86.5986 115.452 86.9746C115.164 87.3457 114.771 87.6362 114.272 87.8462C113.779 88.0513 113.215 88.1538 112.581 88.1538ZM120.718 88.0513C119.849 88.0513 119.219 87.8853 118.828 87.5532C118.442 87.2163 118.25 86.667 118.25 85.9053V81.2983H117.004V80.0459H118.25V78.0391H119.875V80.0459H121.582V81.2983H119.875V85.5171C119.875 85.9468 119.961 86.2568 120.132 86.4473C120.303 86.6328 120.586 86.7256 120.981 86.7256C121.099 86.7256 121.199 86.7231 121.282 86.7183C121.37 86.7134 121.47 86.7061 121.582 86.6963V87.9707C121.455 87.9902 121.318 88.0073 121.172 88.022C121.025 88.0415 120.874 88.0513 120.718 88.0513ZM123.186 84.4697V83.0122H128.086V84.4697H123.186ZM131.36 84.3892V83.0122H134.246C134.958 83.0122 135.51 82.8291 135.901 82.4629C136.296 82.0918 136.494 81.5791 136.494 80.9248V80.9102C136.494 80.2461 136.296 79.731 135.901 79.3647C135.51 78.9985 134.958 78.8154 134.246 78.8154H131.36V77.4312H134.656C135.349 77.4312 135.957 77.5776 136.479 77.8706C137.007 78.1587 137.419 78.564 137.717 79.0864C138.015 79.604 138.164 80.207 138.164 80.8955V80.9102C138.164 81.5986 138.015 82.2065 137.717 82.7339C137.419 83.2563 137.007 83.6641 136.479 83.957C135.957 84.2451 135.349 84.3892 134.656 84.3892H131.36ZM130.54 88V77.4312H132.18V88H130.54ZM141.987 88.1318C141.484 88.1318 141.033 88.0366 140.632 87.8462C140.237 87.6509 139.924 87.375 139.695 87.0186C139.465 86.6621 139.351 86.2446 139.351 85.7661V85.7515C139.351 85.2729 139.465 84.8652 139.695 84.5283C139.929 84.1914 140.266 83.9277 140.706 83.7373C141.15 83.542 141.687 83.4248 142.317 83.3857L145.254 83.21V84.3306L142.537 84.5063C141.99 84.5405 141.587 84.6577 141.328 84.8579C141.069 85.0532 140.94 85.3291 140.94 85.6855V85.7002C140.94 86.0615 141.079 86.3472 141.357 86.5571C141.636 86.7622 141.987 86.8647 142.412 86.8647C142.808 86.8647 143.159 86.7866 143.467 86.6304C143.779 86.4692 144.023 86.2544 144.199 85.9858C144.375 85.7124 144.463 85.4048 144.463 85.063V82.5581C144.463 82.1187 144.326 81.7842 144.053 81.5547C143.784 81.3203 143.384 81.2031 142.852 81.2031C142.407 81.2031 142.043 81.2812 141.76 81.4375C141.482 81.5938 141.296 81.8135 141.204 82.0967L141.189 82.1187H139.658L139.666 82.0674C139.729 81.6279 139.902 81.2471 140.186 80.9248C140.474 80.5977 140.85 80.3438 141.313 80.1631C141.782 79.9824 142.317 79.8921 142.917 79.8921C143.586 79.8921 144.153 79.9995 144.617 80.2144C145.085 80.4243 145.439 80.7295 145.679 81.1299C145.923 81.5254 146.045 82.0015 146.045 82.5581V88H144.463V86.8721H144.346C144.189 87.1406 143.994 87.3701 143.76 87.5605C143.525 87.7461 143.259 87.8877 142.961 87.9854C142.664 88.083 142.339 88.1318 141.987 88.1318ZM148.799 90.7979C148.701 90.7979 148.596 90.793 148.484 90.7832C148.372 90.7783 148.264 90.771 148.162 90.7612V89.5088C148.24 89.5186 148.325 89.5259 148.418 89.5308C148.516 89.5356 148.608 89.5381 148.696 89.5381C149.067 89.5381 149.368 89.4502 149.597 89.2744C149.827 89.1035 150 88.8179 150.117 88.4175L150.234 88.0073L147.349 80.0459H149.07L151.318 87.2163L150.82 86.396H151.428L150.938 87.2163L153.179 80.0459H154.856L151.897 88.3003C151.672 88.9351 151.423 89.4331 151.15 89.7944C150.876 90.1606 150.552 90.4194 150.176 90.5708C149.8 90.7222 149.341 90.7979 148.799 90.7979ZM156.475 88V80.0459H158.064V81.269H158.188C158.364 80.8296 158.638 80.4902 159.009 80.251C159.385 80.0117 159.834 79.8921 160.356 79.8921C160.718 79.8921 161.042 79.9507 161.331 80.0679C161.619 80.1851 161.865 80.3511 162.07 80.5659C162.28 80.7759 162.444 81.0249 162.561 81.313H162.686C162.817 81.0249 163.003 80.7759 163.242 80.5659C163.481 80.3511 163.76 80.1851 164.077 80.0679C164.399 79.9507 164.741 79.8921 165.103 79.8921C165.64 79.8921 166.099 79.9971 166.479 80.207C166.86 80.4121 167.151 80.71 167.351 81.1006C167.551 81.4912 167.651 81.9624 167.651 82.5142V88H166.062V82.895C166.062 82.5288 166.006 82.2261 165.894 81.9868C165.781 81.7427 165.61 81.5596 165.381 81.4375C165.156 81.3154 164.873 81.2544 164.531 81.2544C164.194 81.2544 163.899 81.3325 163.645 81.4888C163.396 81.6401 163.201 81.8452 163.059 82.104C162.922 82.3579 162.854 82.646 162.854 82.9683V88H161.265V82.7339C161.265 82.4312 161.201 82.1699 161.074 81.9502C160.952 81.7256 160.776 81.5547 160.547 81.4375C160.317 81.3154 160.046 81.2544 159.734 81.2544C159.417 81.2544 159.131 81.3374 158.877 81.5034C158.628 81.6694 158.43 81.894 158.284 82.1772C158.137 82.4556 158.064 82.7681 158.064 83.1147V88H156.475ZM173.218 88.1538C172.441 88.1538 171.775 87.9878 171.218 87.6558C170.662 87.3188 170.232 86.8428 169.929 86.2275C169.631 85.6123 169.482 84.8848 169.482 84.0449V84.0376C169.482 83.2075 169.631 82.4824 169.929 81.8623C170.232 81.2422 170.657 80.7588 171.204 80.4121C171.755 80.0654 172.4 79.8921 173.137 79.8921C173.879 79.8921 174.517 80.0581 175.049 80.3901C175.586 80.7222 175.999 81.1885 176.287 81.7891C176.575 82.3848 176.719 83.083 176.719 83.8838V84.4404H170.288V83.3052H175.928L175.166 84.3599V83.7227C175.166 83.1562 175.078 82.6875 174.902 82.3164C174.731 81.9404 174.495 81.6597 174.192 81.4741C173.889 81.2886 173.54 81.1958 173.145 81.1958C172.749 81.1958 172.395 81.2935 172.083 81.4888C171.775 81.6792 171.531 81.9624 171.35 82.3384C171.174 82.7144 171.086 83.1758 171.086 83.7227V84.3599C171.086 84.8823 171.174 85.3291 171.35 85.7002C171.526 86.0713 171.775 86.3545 172.097 86.5498C172.424 86.7451 172.81 86.8428 173.254 86.8428C173.596 86.8428 173.889 86.7964 174.133 86.7036C174.382 86.606 174.585 86.4863 174.741 86.3447C174.902 86.2031 175.012 86.064 175.071 85.9272L175.1 85.8687H176.638L176.624 85.9346C176.555 86.1982 176.436 86.4619 176.265 86.7256C176.094 86.9844 175.867 87.2212 175.583 87.436C175.305 87.6509 174.968 87.8242 174.573 87.9561C174.182 88.0879 173.73 88.1538 173.218 88.1538ZM178.608 88V80.0459H180.198V81.2471H180.322C180.518 80.8223 180.806 80.4902 181.187 80.251C181.567 80.0117 182.048 79.8921 182.629 79.8921C183.523 79.8921 184.207 80.1484 184.68 80.6611C185.154 81.1738 185.391 81.9038 185.391 82.8511V88H183.794V83.2246C183.794 82.5605 183.655 82.0674 183.376 81.7451C183.103 81.418 182.673 81.2544 182.087 81.2544C181.702 81.2544 181.367 81.3398 181.084 81.5107C180.801 81.6768 180.581 81.916 180.425 82.2285C180.273 82.5361 180.198 82.9048 180.198 83.3345V88H178.608ZM190.605 88.0513C189.736 88.0513 189.106 87.8853 188.716 87.5532C188.33 87.2163 188.137 86.667 188.137 85.9053V81.2983H186.892V80.0459H188.137V78.0391H189.763V80.0459H191.47V81.2983H189.763V85.5171C189.763 85.9468 189.849 86.2568 190.02 86.4473C190.19 86.6328 190.474 86.7256 190.869 86.7256C190.986 86.7256 191.086 86.7231 191.169 86.7183C191.257 86.7134 191.357 86.7061 191.47 86.6963V87.9707C191.343 87.9902 191.206 88.0073 191.06 88.022C190.913 88.0415 190.762 88.0513 190.605 88.0513ZM196.787 88L200.603 77.4312H201.929V79.2842H201.431L198.516 88H196.787ZM198.625 85.1436L199.087 83.8252H203.899L204.36 85.1436H198.625ZM204.463 88L201.555 79.2842V77.4312H202.383L206.191 88H204.463ZM208.03 88V77.4312H209.67V88H208.03ZM220.745 88.2563C219.768 88.2563 218.921 88.0317 218.203 87.5825C217.49 87.1333 216.941 86.4961 216.555 85.6709C216.169 84.8457 215.977 83.8643 215.977 82.7266V82.7119C215.977 81.5693 216.169 80.5854 216.555 79.7603C216.941 78.9351 217.49 78.2979 218.203 77.8486C218.916 77.3994 219.763 77.1748 220.745 77.1748C221.521 77.1748 222.222 77.3286 222.847 77.6362C223.477 77.939 223.992 78.3589 224.392 78.896C224.797 79.4331 225.044 80.0508 225.132 80.749V80.793H223.499L223.491 80.7637C223.394 80.3291 223.215 79.9531 222.957 79.6357C222.698 79.3184 222.38 79.0718 222.004 78.896C221.628 78.7202 221.208 78.6323 220.745 78.6323C220.115 78.6323 219.568 78.7983 219.104 79.1304C218.645 79.4624 218.289 79.9336 218.035 80.5439C217.786 81.1494 217.661 81.8721 217.661 82.7119V82.7266C217.661 83.5566 217.786 84.2769 218.035 84.8872C218.289 85.4976 218.645 85.9688 219.104 86.3008C219.568 86.6328 220.117 86.7988 220.752 86.7988C221.216 86.7988 221.636 86.7207 222.012 86.5645C222.393 86.4082 222.71 86.186 222.964 85.8979C223.218 85.605 223.391 85.2607 223.484 84.8652L223.499 84.8359H225.139L225.132 84.8726C225.029 85.5513 224.78 86.1445 224.385 86.6523C223.989 87.1602 223.481 87.5557 222.861 87.8389C222.241 88.1172 221.536 88.2563 220.745 88.2563ZM230.479 88.1538C229.702 88.1538 229.031 87.9878 228.464 87.6558C227.903 87.3237 227.471 86.8501 227.168 86.2349C226.865 85.6147 226.714 84.8799 226.714 84.0303V84.0156C226.714 83.1611 226.865 82.4263 227.168 81.811C227.476 81.1958 227.91 80.7222 228.472 80.3901C229.038 80.0581 229.707 79.8921 230.479 79.8921C231.255 79.8921 231.924 80.0581 232.485 80.3901C233.047 80.7173 233.479 81.1909 233.782 81.811C234.089 82.4263 234.243 83.1611 234.243 84.0156V84.0303C234.243 84.8799 234.089 85.6147 233.782 86.2349C233.479 86.8501 233.047 87.3237 232.485 87.6558C231.929 87.9878 231.26 88.1538 230.479 88.1538ZM230.479 86.8208C230.933 86.8208 231.318 86.7109 231.636 86.4912C231.953 86.2666 232.195 85.9468 232.361 85.5317C232.527 85.1167 232.61 84.6162 232.61 84.0303V84.0156C232.61 83.4248 232.527 82.9219 232.361 82.5068C232.195 82.0918 231.953 81.7744 231.636 81.5547C231.318 81.3301 230.933 81.2178 230.479 81.2178C230.024 81.2178 229.639 81.3301 229.321 81.5547C229.004 81.7744 228.76 82.0918 228.589 82.5068C228.423 82.9219 228.34 83.4248 228.34 84.0156V84.0303C228.34 84.6162 228.423 85.1167 228.589 85.5317C228.76 85.9468 229.004 86.2666 229.321 86.4912C229.639 86.7109 230.024 86.8208 230.479 86.8208ZM236.133 88V80.0459H237.722V81.269H237.847C238.022 80.8296 238.296 80.4902 238.667 80.251C239.043 80.0117 239.492 79.8921 240.015 79.8921C240.376 79.8921 240.701 79.9507 240.989 80.0679C241.277 80.1851 241.523 80.3511 241.729 80.5659C241.938 80.7759 242.102 81.0249 242.219 81.313H242.344C242.476 81.0249 242.661 80.7759 242.9 80.5659C243.14 80.3511 243.418 80.1851 243.735 80.0679C244.058 79.9507 244.399 79.8921 244.761 79.8921C245.298 79.8921 245.757 79.9971 246.138 80.207C246.519 80.4121 246.809 80.71 247.009 81.1006C247.209 81.4912 247.31 81.9624 247.31 82.5142V88H245.72V82.895C245.72 82.5288 245.664 82.2261 245.552 81.9868C245.439 81.7427 245.269 81.5596 245.039 81.4375C244.814 81.3154 244.531 81.2544 244.189 81.2544C243.853 81.2544 243.557 81.3325 243.303 81.4888C243.054 81.6401 242.859 81.8452 242.717 82.104C242.581 82.3579 242.512 82.646 242.512 82.9683V88H240.923V82.7339C240.923 82.4312 240.859 82.1699 240.732 81.9502C240.61 81.7256 240.435 81.5547 240.205 81.4375C239.976 81.3154 239.705 81.2544 239.392 81.2544C239.075 81.2544 238.789 81.3374 238.535 81.5034C238.286 81.6694 238.088 81.894 237.942 82.1772C237.795 82.4556 237.722 82.7681 237.722 83.1147V88H236.133ZM249.536 90.6514V80.0459H251.125V81.2983H251.25C251.401 81.0054 251.597 80.7563 251.836 80.5513C252.08 80.3462 252.358 80.1875 252.671 80.0752C252.983 79.9629 253.325 79.9067 253.696 79.9067C254.365 79.9067 254.946 80.0776 255.439 80.4194C255.933 80.7563 256.313 81.2324 256.582 81.8477C256.855 82.458 256.992 83.1807 256.992 84.0156V84.0303C256.992 84.8701 256.858 85.5977 256.589 86.2129C256.321 86.8232 255.94 87.2969 255.447 87.6338C254.954 87.9658 254.37 88.1318 253.696 88.1318C253.33 88.1318 252.988 88.0757 252.671 87.9634C252.354 87.8462 252.073 87.6851 251.829 87.48C251.584 87.2749 251.392 87.0283 251.25 86.7402H251.125V90.6514H249.536ZM253.242 86.7695C253.687 86.7695 254.067 86.6597 254.385 86.4399C254.702 86.2202 254.944 85.9053 255.11 85.4951C255.281 85.085 255.366 84.5967 255.366 84.0303V84.0156C255.366 83.4443 255.281 82.9536 255.11 82.5435C254.944 82.1333 254.702 81.8184 254.385 81.5986C254.067 81.3789 253.687 81.269 253.242 81.269C252.803 81.269 252.422 81.3813 252.1 81.606C251.777 81.8257 251.531 82.1406 251.36 82.5508C251.189 82.9561 251.104 83.4443 251.104 84.0156V84.0303C251.104 84.5918 251.189 85.0776 251.36 85.4878C251.531 85.8979 251.777 86.2153 252.1 86.4399C252.422 86.6597 252.803 86.7695 253.242 86.7695ZM261.079 88.1318C260.576 88.1318 260.125 88.0366 259.724 87.8462C259.329 87.6509 259.016 87.375 258.787 87.0186C258.557 86.6621 258.442 86.2446 258.442 85.7661V85.7515C258.442 85.2729 258.557 84.8652 258.787 84.5283C259.021 84.1914 259.358 83.9277 259.797 83.7373C260.242 83.542 260.779 83.4248 261.409 83.3857L264.346 83.21V84.3306L261.628 84.5063C261.082 84.5405 260.679 84.6577 260.42 84.8579C260.161 85.0532 260.032 85.3291 260.032 85.6855V85.7002C260.032 86.0615 260.171 86.3472 260.449 86.5571C260.728 86.7622 261.079 86.8647 261.504 86.8647C261.899 86.8647 262.251 86.7866 262.559 86.6304C262.871 86.4692 263.115 86.2544 263.291 85.9858C263.467 85.7124 263.555 85.4048 263.555 85.063V82.5581C263.555 82.1187 263.418 81.7842 263.145 81.5547C262.876 81.3203 262.476 81.2031 261.943 81.2031C261.499 81.2031 261.135 81.2812 260.852 81.4375C260.574 81.5938 260.388 81.8135 260.295 82.0967L260.281 82.1187H258.75L258.757 82.0674C258.821 81.6279 258.994 81.2471 259.277 80.9248C259.565 80.5977 259.941 80.3438 260.405 80.1631C260.874 79.9824 261.409 79.8921 262.009 79.8921C262.678 79.8921 263.245 79.9995 263.708 80.2144C264.177 80.4243 264.531 80.7295 264.771 81.1299C265.015 81.5254 265.137 82.0015 265.137 82.5581V88H263.555V86.8721H263.438C263.281 87.1406 263.086 87.3701 262.852 87.5605C262.617 87.7461 262.351 87.8877 262.053 87.9854C261.755 88.083 261.431 88.1318 261.079 88.1318ZM267.378 88V80.0459H268.967V81.2471H269.092C269.287 80.8223 269.575 80.4902 269.956 80.251C270.337 80.0117 270.818 79.8921 271.399 79.8921C272.292 79.8921 272.976 80.1484 273.45 80.6611C273.923 81.1738 274.16 81.9038 274.16 82.8511V88H272.563V83.2246C272.563 82.5605 272.424 82.0674 272.146 81.7451C271.873 81.418 271.443 81.2544 270.857 81.2544C270.471 81.2544 270.137 81.3398 269.854 81.5107C269.57 81.6768 269.351 81.916 269.194 82.2285C269.043 82.5361 268.967 82.9048 268.967 83.3345V88H267.378ZM276.885 90.7979C276.787 90.7979 276.682 90.793 276.57 90.7832C276.458 90.7783 276.35 90.771 276.248 90.7612V89.5088C276.326 89.5186 276.411 89.5259 276.504 89.5308C276.602 89.5356 276.694 89.5381 276.782 89.5381C277.153 89.5381 277.454 89.4502 277.683 89.2744C277.913 89.1035 278.086 88.8179 278.203 88.4175L278.32 88.0073L275.435 80.0459H277.156L279.404 87.2163L278.906 86.396H279.514L279.023 87.2163L281.265 80.0459H282.942L279.983 88.3003C279.758 88.9351 279.509 89.4331 279.236 89.7944C278.962 90.1606 278.638 90.4194 278.262 90.5708C277.886 90.7222 277.427 90.7979 276.885 90.7979Z" fill="#004FE0"/>
<g clip-path="url(#clip0_4049_189)">
<path d="M92.3158 34.3279C92.2127 35.0421 92.0802 35.7931 91.8887 36.5809H59.9637C60.8031 39.0254 62.202 40.9617 64.1899 42.3975C66.1779 43.8259 68.4161 44.54 70.9048 44.54C73.1725 44.54 75.3372 44.0467 77.384 43.0527C79.4456 42.0587 80.9918 40.6892 82.0668 38.9296L89.5327 43.7817C87.5595 46.69 84.9383 49.0093 81.684 50.7395C78.4297 52.4697 74.8366 53.3386 70.9049 53.3386C67.9156 53.3386 65.0736 52.7938 62.423 51.7114C59.7724 50.6217 57.4458 49.1344 55.4725 47.2422C53.4845 45.35 51.9089 43.1117 50.7603 40.5273C49.597 37.9429 49.0227 35.1231 49.0227 32.0748C49.0227 29.0266 49.597 26.214 50.7603 23.6297C51.9089 21.038 53.4845 18.7997 55.4725 16.9075C57.4457 15.0153 59.7724 13.5354 62.423 12.4751C65.0736 11.4149 67.9156 10.8848 70.9049 10.8848C73.8648 10.8848 76.6478 11.437 79.2543 12.5488C81.8607 13.6532 84.1432 15.1552 86.1164 17.0474C88.0749 18.9396 89.6211 21.1779 90.755 23.7623C91.8889 26.354 92.4484 29.1224 92.4484 32.0749C92.4484 32.8627 92.4041 33.6137 92.3158 34.3279ZM77.6932 22.2456C75.7052 20.8098 73.4522 20.0957 70.9047 20.0957C68.4161 20.0957 66.1778 20.8098 64.1899 22.2456C62.2019 23.6739 60.8029 25.6104 59.9637 28.0622H81.9195C81.0948 25.6104 79.6811 23.6739 77.6932 22.2456Z" fill="#004FE0"/>
<path d="M104.685 63.9996L109.604 51.2619L94.3774 12.0625H104.553L114.596 38.1709H114.728L124.771 12.0625H134.888L114.802 63.9996H104.685Z" fill="#004FE0"/>
<path d="M163.19 21.2368C161.762 20.611 160.245 20.3017 158.625 20.3017C157.005 20.3017 155.488 20.611 154.06 21.2368C152.617 21.8626 151.38 22.702 150.32 23.7622C149.259 24.8298 148.405 26.0742 147.787 27.5025C147.168 28.9383 146.844 30.4624 146.844 32.0748C146.844 33.6946 147.168 35.2261 147.787 36.6839C148.405 38.1344 149.259 39.3934 150.32 40.4537C151.38 41.5212 152.617 42.3606 154.06 42.9865C155.488 43.605 157.005 43.9215 158.625 43.9215C160.245 43.9215 161.761 43.605 163.19 42.9865C164.633 42.3607 165.87 41.5213 166.93 40.4537L173.719 47.1022C171.731 49.046 169.463 50.5701 166.901 51.6745C164.338 52.7863 161.585 53.3385 158.625 53.3385C155.577 53.3385 152.72 52.8084 150.04 51.7481C147.36 50.6806 145.033 49.1933 143.075 47.2789C141.116 45.3646 139.555 43.1116 138.407 40.5273C137.243 37.9429 136.669 35.1231 136.669 32.0748C136.669 29.0266 137.243 26.214 138.407 23.6297C139.555 21.038 141.116 18.7997 143.075 16.9075C145.033 15.0153 147.36 13.5354 150.04 12.4751C152.72 11.4149 155.577 10.8848 158.625 10.8848C161.585 10.8848 164.338 11.4296 166.901 12.512C169.463 13.5943 171.731 15.1331 173.719 17.1137L166.93 23.7622C165.87 22.702 164.633 21.8626 163.19 21.2368Z" fill="#004FE0"/>
<path d="M190.123 0.216797V52.1612H180.419V0.216797H190.123Z" fill="#004FE0"/>
<path d="M21.4773 10.6622C9.61582 10.6622 0 20.2779 0 32.1394V64.0009H9.70411V50.0761C13.0873 52.3015 17.1258 53.6166 21.4772 53.6166C33.3423 53.6166 42.9544 44.0008 42.9544 32.1394C42.9544 20.2779 33.3424 10.6622 21.4773 10.6622ZM21.4773 43.9226C14.9722 43.9226 9.69679 38.6472 9.69679 32.1394C9.69679 25.6317 14.9722 20.3562 21.4773 20.3562C27.986 20.3562 33.2614 25.6317 33.2614 32.1394C33.2614 38.6472 27.986 43.9226 21.4773 43.9226Z" fill="#004FE0"/>
<path d="M286.811 31.8615C286.811 20.0001 277.199 10.3843 265.334 10.3843C260.982 10.3843 256.944 11.6994 253.561 13.9248V0H243.856V31.8615C243.856 43.723 253.472 53.3388 265.334 53.3388C277.199 53.3388 286.811 43.723 286.811 31.8615ZM277.118 31.8615C277.118 38.3693 271.842 43.6447 265.334 43.6447C258.829 43.6447 253.553 38.3693 253.553 31.8615C253.553 25.3538 258.829 20.0783 265.334 20.0783C271.842 20.0783 277.118 25.3538 277.118 31.8615Z" fill="#004FE0"/>
<path d="M225.787 12.0625V34.5733C225.787 39.4244 221.855 43.3571 217.003 43.3571H216.933C212.081 43.3571 208.146 39.4244 208.146 34.5733V12.0625H198.442V34.5668C198.442 44.7983 206.736 53.0916 216.966 53.0916C227.197 53.0916 235.491 44.7983 235.491 34.5668V12.0625H225.787Z" fill="#004FE0"/>
<path d="M286.344 11.5615V10.6152H290.811V11.5615H289.145V16.055H288.01V11.5615H286.344Z" fill="#004FE0"/>
<path d="M291.546 10.6153H292.963L294.455 14.2706H294.52L296.023 10.6153H297.44V16.055H296.326V12.5132H296.283L294.877 16.0279H294.109L292.703 12.5024H292.66V16.0549H291.546L291.546 10.6153Z" fill="#004FE0"/>
</g>
<defs>
<clipPath id="clip0_4049_189">
<rect width="297.44" height="64" fill="white"/>
</clipPath>
</defs>
</svg>
